  0
SECTION
  2
HEADER
  9
$ACADVER
  1
AC1009
  9
$EXTMIN
 10
0.0
 20
0.0
 30
0.0
  9
$EXTMAX
 10
1000.0
 20
1000.0
 30
0.0
  9
$FILLMODE
 70
 0
  9
$SPLFRAME
 70
 1
  0
ENDSEC
  0
SECTION
  2
TABLES
  0
TABLE
  2
LAYER
 70
1
  0
LAYER
  2
0
 70
     0
 62
     7
  6
CONTINUOUS
  0
ENDTAB
  0
ENDSEC
  0
SECTION
  2
ENTITIES
  0
LINE
  8
0
 62
     0
 10
0.0950846
 20
139.252
 30
0.0
 11
410.619
 21
139.252
 31
0.0
  0
LINE
  8
0
 62
     0
 10
410.619
 20
139.252
 30
0.0
 11
410.619
 21
0.190169
 31
0.0
  0
LINE
  8
0
 62
     0
 10
410.619
 20
0.190169
 30
0.0
 11
0.0950846
 21
0.190169
 31
0.0
  0
LINE
  8
0
 62
     0
 10
0.0950846
 20
0.190169
 30
0.0
 11
0.0950846
 21
139.252
 31
0.0
  0
LINE
  8
0
 62
     0
 10
4.55306
 20
6.85437
 30
0.0
 11
4.0652
 21
6.60633
 31
0.0
  0
LINE
  8
0
 62
     0
 10
4.0652
 20
6.60633
 30
0.0
 11
3.67799
 21
6.21908
 31
0.0
  0
LINE
  8
0
 62
     0
 10
3.67799
 20
6.21908
 30
0.0
 11
3.42994
 21
5.73126
 31
0.0
  0
LINE
  8
0
 62
     0
 10
3.42994
 20
5.73126
 30
0.0
 11
3.3445
 21
5.18968
 31
0.0
  0
LINE
  8
0
 62
     0
 10
3.3445
 20
5.18968
 30
0.0
 11
3.42994
 21
4.64813
 31
0.0
  0
LINE
  8
0
 62
     0
 10
3.42994
 20
4.64813
 30
0.0
 11
3.67799
 21
4.16031
 31
0.0
  0
LINE
  8
0
 62
     0
 10
3.67799
 20
4.16031
 30
0.0
 11
4.0652
 21
3.77306
 31
0.0
  0
LINE
  8
0
 62
     0
 10
4.0652
 20
3.77306
 30
0.0
 11
4.55306
 21
3.5264
 31
0.0
  0
LINE
  8
0
 62
     0
 10
4.55306
 20
3.5264
 30
0.0
 11
5.0946
 21
3.43958
 31
0.0
  0
LINE
  8
0
 62
     0
 10
5.0946
 20
3.43958
 30
0.0
 11
5.63481
 21
3.5264
 31
0.0
  0
LINE
  8
0
 62
     0
 10
5.63481
 20
3.5264
 30
0.0
 11
6.12263
 21
3.77306
 31
0.0
  0
LINE
  8
0
 62
     0
 10
6.12263
 20
3.77306
 30
0.0
 11
6.50984
 21
4.16031
 31
0.0
  0
LINE
  8
0
 62
     0
 10
6.50984
 20
4.16031
 30
0.0
 11
6.75792
 21
4.64813
 31
0.0
  0
LINE
  8
0
 62
     0
 10
6.75792
 20
4.64813
 30
0.0
 11
6.8447
 21
5.18968
 31
0.0
  0
LINE
  8
0
 62
     0
 10
6.8447
 20
5.18968
 30
0.0
 11
6.75792
 21
5.73126
 31
0.0
  0
LINE
  8
0
 62
     0
 10
6.75792
 20
5.73126
 30
0.0
 11
6.50984
 21
6.21908
 31
0.0
  0
LINE
  8
0
 62
     0
 10
6.50984
 20
6.21908
 30
0.0
 11
6.12263
 21
6.60633
 31
0.0
  0
LINE
  8
0
 62
     0
 10
6.12263
 20
6.60633
 30
0.0
 11
5.63481
 21
6.85437
 31
0.0
  0
LINE
  8
0
 62
     0
 10
5.63481
 20
6.85437
 30
0.0
 11
5.0946
 21
6.93981
 31
0.0
  0
LINE
  8
0
 62
     0
 10
5.0946
 20
6.93981
 30
0.0
 11
4.55306
 21
6.85437
 31
0.0
  0
LINE
  8
0
 62
     0
 10
104.684
 20
6.85437
 30
0.0
 11
104.196
 21
6.60633
 31
0.0
  0
LINE
  8
0
 62
     0
 10
104.196
 20
6.60633
 30
0.0
 11
103.809
 21
6.21908
 31
0.0
  0
LINE
  8
0
 62
     0
 10
103.809
 20
6.21908
 30
0.0
 11
103.561
 21
5.73126
 31
0.0
  0
LINE
  8
0
 62
     0
 10
103.561
 20
5.73126
 30
0.0
 11
103.475
 21
5.18968
 31
0.0
  0
LINE
  8
0
 62
     0
 10
103.475
 20
5.18968
 30
0.0
 11
103.561
 21
4.64813
 31
0.0
  0
LINE
  8
0
 62
     0
 10
103.561
 20
4.64813
 30
0.0
 11
103.809
 21
4.16031
 31
0.0
  0
LINE
  8
0
 62
     0
 10
103.809
 20
4.16031
 30
0.0
 11
104.196
 21
3.77306
 31
0.0
  0
LINE
  8
0
 62
     0
 10
104.196
 20
3.77306
 30
0.0
 11
104.684
 21
3.5264
 31
0.0
  0
LINE
  8
0
 62
     0
 10
104.684
 20
3.5264
 30
0.0
 11
105.226
 21
3.43958
 31
0.0
  0
LINE
  8
0
 62
     0
 10
105.226
 20
3.43958
 30
0.0
 11
105.766
 21
3.5264
 31
0.0
  0
LINE
  8
0
 62
     0
 10
105.766
 20
3.5264
 30
0.0
 11
106.255
 21
3.77306
 31
0.0
  0
LINE
  8
0
 62
     0
 10
106.255
 20
3.77306
 30
0.0
 11
106.641
 21
4.16031
 31
0.0
  0
LINE
  8
0
 62
     0
 10
106.641
 20
4.16031
 30
0.0
 11
106.889
 21
4.64813
 31
0.0
  0
LINE
  8
0
 62
     0
 10
106.889
 20
4.64813
 30
0.0
 11
106.976
 21
5.18968
 31
0.0
  0
LINE
  8
0
 62
     0
 10
106.976
 20
5.18968
 30
0.0
 11
106.889
 21
5.73126
 31
0.0
  0
LINE
  8
0
 62
     0
 10
106.889
 20
5.73126
 30
0.0
 11
106.641
 21
6.21908
 31
0.0
  0
LINE
  8
0
 62
     0
 10
106.641
 20
6.21908
 30
0.0
 11
106.255
 21
6.60633
 31
0.0
  0
LINE
  8
0
 62
     0
 10
106.255
 20
6.60633
 30
0.0
 11
105.766
 21
6.85437
 31
0.0
  0
LINE
  8
0
 62
     0
 10
105.766
 20
6.85437
 30
0.0
 11
105.226
 21
6.93981
 31
0.0
  0
LINE
  8
0
 62
     0
 10
105.226
 20
6.93981
 30
0.0
 11
104.684
 21
6.85437
 31
0.0
  0
LINE
  8
0
 62
     0
 10
204.816
 20
6.85437
 30
0.0
 11
204.329
 21
6.60633
 31
0.0
  0
LINE
  8
0
 62
     0
 10
204.329
 20
6.60633
 30
0.0
 11
203.942
 21
6.21908
 31
0.0
  0
LINE
  8
0
 62
     0
 10
203.942
 20
6.21908
 30
0.0
 11
203.692
 21
5.73126
 31
0.0
  0
LINE
  8
0
 62
     0
 10
203.692
 20
5.73126
 30
0.0
 11
203.608
 21
5.18968
 31
0.0
  0
LINE
  8
0
 62
     0
 10
203.608
 20
5.18968
 30
0.0
 11
203.692
 21
4.64813
 31
0.0
  0
LINE
  8
0
 62
     0
 10
203.692
 20
4.64813
 30
0.0
 11
203.942
 21
4.16031
 31
0.0
  0
LINE
  8
0
 62
     0
 10
203.942
 20
4.16031
 30
0.0
 11
204.329
 21
3.77306
 31
0.0
  0
LINE
  8
0
 62
     0
 10
204.329
 20
3.77306
 30
0.0
 11
204.816
 21
3.5264
 31
0.0
  0
LINE
  8
0
 62
     0
 10
204.816
 20
3.5264
 30
0.0
 11
205.358
 21
3.43958
 31
0.0
  0
LINE
  8
0
 62
     0
 10
205.358
 20
3.43958
 30
0.0
 11
205.897
 21
3.5264
 31
0.0
  0
LINE
  8
0
 62
     0
 10
205.897
 20
3.5264
 30
0.0
 11
206.386
 21
3.77306
 31
0.0
  0
LINE
  8
0
 62
     0
 10
206.386
 20
3.77306
 30
0.0
 11
206.772
 21
4.16031
 31
0.0
  0
LINE
  8
0
 62
     0
 10
206.772
 20
4.16031
 30
0.0
 11
207.021
 21
4.64813
 31
0.0
  0
LINE
  8
0
 62
     0
 10
207.021
 20
4.64813
 30
0.0
 11
207.108
 21
5.18968
 31
0.0
  0
LINE
  8
0
 62
     0
 10
207.108
 20
5.18968
 30
0.0
 11
207.021
 21
5.73126
 31
0.0
  0
LINE
  8
0
 62
     0
 10
207.021
 20
5.73126
 30
0.0
 11
206.772
 21
6.21908
 31
0.0
  0
LINE
  8
0
 62
     0
 10
206.772
 20
6.21908
 30
0.0
 11
206.386
 21
6.60633
 31
0.0
  0
LINE
  8
0
 62
     0
 10
206.386
 20
6.60633
 30
0.0
 11
205.897
 21
6.85437
 31
0.0
  0
LINE
  8
0
 62
     0
 10
205.897
 20
6.85437
 30
0.0
 11
205.358
 21
6.93981
 31
0.0
  0
LINE
  8
0
 62
     0
 10
205.358
 20
6.93981
 30
0.0
 11
204.816
 21
6.85437
 31
0.0
  0
LINE
  8
0
 62
     0
 10
304.947
 20
6.85437
 30
0.0
 11
304.46
 21
6.60633
 31
0.0
  0
LINE
  8
0
 62
     0
 10
304.46
 20
6.60633
 30
0.0
 11
304.073
 21
6.21908
 31
0.0
  0
LINE
  8
0
 62
     0
 10
304.073
 20
6.21908
 30
0.0
 11
303.824
 21
5.73126
 31
0.0
  0
LINE
  8
0
 62
     0
 10
303.824
 20
5.73126
 30
0.0
 11
303.739
 21
5.18968
 31
0.0
  0
LINE
  8
0
 62
     0
 10
303.739
 20
5.18968
 30
0.0
 11
303.824
 21
4.64813
 31
0.0
  0
LINE
  8
0
 62
     0
 10
303.824
 20
4.64813
 30
0.0
 11
304.073
 21
4.16031
 31
0.0
  0
LINE
  8
0
 62
     0
 10
304.073
 20
4.16031
 30
0.0
 11
304.46
 21
3.77306
 31
0.0
  0
LINE
  8
0
 62
     0
 10
304.46
 20
3.77306
 30
0.0
 11
304.947
 21
3.5264
 31
0.0
  0
LINE
  8
0
 62
     0
 10
304.947
 20
3.5264
 30
0.0
 11
305.489
 21
3.43958
 31
0.0
  0
LINE
  8
0
 62
     0
 10
305.489
 20
3.43958
 30
0.0
 11
306.029
 21
3.5264
 31
0.0
  0
LINE
  8
0
 62
     0
 10
306.029
 20
3.5264
 30
0.0
 11
306.517
 21
3.77306
 31
0.0
  0
LINE
  8
0
 62
     0
 10
306.517
 20
3.77306
 30
0.0
 11
306.904
 21
4.16031
 31
0.0
  0
LINE
  8
0
 62
     0
 10
306.904
 20
4.16031
 30
0.0
 11
307.152
 21
4.64813
 31
0.0
  0
LINE
  8
0
 62
     0
 10
307.152
 20
4.64813
 30
0.0
 11
307.239
 21
5.18968
 31
0.0
  0
LINE
  8
0
 62
     0
 10
307.239
 20
5.18968
 30
0.0
 11
307.152
 21
5.73126
 31
0.0
  0
LINE
  8
0
 62
     0
 10
307.152
 20
5.73126
 30
0.0
 11
306.904
 21
6.21908
 31
0.0
  0
LINE
  8
0
 62
     0
 10
306.904
 20
6.21908
 30
0.0
 11
306.517
 21
6.60633
 31
0.0
  0
LINE
  8
0
 62
     0
 10
306.517
 20
6.60633
 30
0.0
 11
306.029
 21
6.85437
 31
0.0
  0
LINE
  8
0
 62
     0
 10
306.029
 20
6.85437
 30
0.0
 11
305.489
 21
6.93981
 31
0.0
  0
LINE
  8
0
 62
     0
 10
305.489
 20
6.93981
 30
0.0
 11
304.947
 21
6.85437
 31
0.0
  0
LINE
  8
0
 62
     0
 10
405.081
 20
6.85437
 30
0.0
 11
404.594
 21
6.60633
 31
0.0
  0
LINE
  8
0
 62
     0
 10
404.594
 20
6.60633
 30
0.0
 11
404.206
 21
6.21908
 31
0.0
  0
LINE
  8
0
 62
     0
 10
404.206
 20
6.21908
 30
0.0
 11
403.955
 21
5.73126
 31
0.0
  0
LINE
  8
0
 62
     0
 10
403.955
 20
5.73126
 30
0.0
 11
403.871
 21
5.18968
 31
0.0
  0
LINE
  8
0
 62
     0
 10
403.871
 20
5.18968
 30
0.0
 11
403.955
 21
4.64813
 31
0.0
  0
LINE
  8
0
 62
     0
 10
403.955
 20
4.64813
 30
0.0
 11
404.206
 21
4.16031
 31
0.0
  0
LINE
  8
0
 62
     0
 10
404.206
 20
4.16031
 30
0.0
 11
404.594
 21
3.77306
 31
0.0
  0
LINE
  8
0
 62
     0
 10
404.594
 20
3.77306
 30
0.0
 11
405.081
 21
3.5264
 31
0.0
  0
LINE
  8
0
 62
     0
 10
405.081
 20
3.5264
 30
0.0
 11
405.62
 21
3.43958
 31
0.0
  0
LINE
  8
0
 62
     0
 10
405.62
 20
3.43958
 30
0.0
 11
406.16
 21
3.5264
 31
0.0
  0
LINE
  8
0
 62
     0
 10
406.16
 20
3.5264
 30
0.0
 11
406.647
 21
3.77306
 31
0.0
  0
LINE
  8
0
 62
     0
 10
406.647
 20
3.77306
 30
0.0
 11
407.035
 21
4.16031
 31
0.0
  0
LINE
  8
0
 62
     0
 10
407.035
 20
4.16031
 30
0.0
 11
407.285
 21
4.64813
 31
0.0
  0
LINE
  8
0
 62
     0
 10
407.285
 20
4.64813
 30
0.0
 11
407.37
 21
5.18968
 31
0.0
  0
LINE
  8
0
 62
     0
 10
407.37
 20
5.18968
 30
0.0
 11
407.285
 21
5.73126
 31
0.0
  0
LINE
  8
0
 62
     0
 10
407.285
 20
5.73126
 30
0.0
 11
407.035
 21
6.21908
 31
0.0
  0
LINE
  8
0
 62
     0
 10
407.035
 20
6.21908
 30
0.0
 11
406.647
 21
6.60633
 31
0.0
  0
LINE
  8
0
 62
     0
 10
406.647
 20
6.60633
 30
0.0
 11
406.16
 21
6.85437
 31
0.0
  0
LINE
  8
0
 62
     0
 10
406.16
 20
6.85437
 30
0.0
 11
405.62
 21
6.93981
 31
0.0
  0
LINE
  8
0
 62
     0
 10
405.62
 20
6.93981
 30
0.0
 11
405.081
 21
6.85437
 31
0.0
  0
LINE
  8
0
 62
     0
 10
138.825
 20
26.716
 30
0.0
 11
138.825
 21
22.0156
 31
0.0
  0
LINE
  8
0
 62
     0
 10
138.825
 20
22.0156
 30
0.0
 11
99.3193
 21
22.0156
 31
0.0
  0
LINE
  8
0
 62
     0
 10
99.3193
 20
22.0156
 30
0.0
 11
99.3193
 21
25.2457
 31
0.0
  0
LINE
  8
0
 62
     0
 10
99.3193
 20
25.2457
 30
0.0
 11
97.5942
 21
25.2457
 31
0.0
  0
LINE
  8
0
 62
     0
 10
97.5942
 20
25.2457
 30
0.0
 11
97.5942
 21
26.1662
 31
0.0
  0
LINE
  8
0
 62
     0
 10
97.5942
 20
26.1662
 30
0.0
 11
94.1751
 21
26.1662
 31
0.0
  0
LINE
  8
0
 62
     0
 10
94.1751
 20
26.1662
 30
0.0
 11
94.1751
 21
25.2457
 31
0.0
  0
LINE
  8
0
 62
     0
 10
94.1751
 20
25.2457
 30
0.0
 11
92.45
 21
25.2457
 31
0.0
  0
LINE
  8
0
 62
     0
 10
92.45
 20
25.2457
 30
0.0
 11
92.45
 21
22.0156
 31
0.0
  0
LINE
  8
0
 62
     0
 10
92.45
 20
22.0156
 30
0.0
 11
91.6259
 21
22.0156
 31
0.0
  0
LINE
  8
0
 62
     0
 10
91.6259
 20
22.0156
 30
0.0
 11
91.6259
 21
19.2154
 31
0.0
  0
LINE
  8
0
 62
     0
 10
91.6259
 20
19.2154
 30
0.0
 11
92.45
 21
19.2154
 31
0.0
  0
LINE
  8
0
 62
     0
 10
92.45
 20
19.2154
 30
0.0
 11
92.45
 21
12.9453
 31
0.0
  0
LINE
  8
0
 62
     0
 10
92.45
 20
12.9453
 30
0.0
 11
94.1751
 21
12.9453
 31
0.0
  0
LINE
  8
0
 62
     0
 10
94.1751
 20
12.9453
 30
0.0
 11
94.1751
 21
11.9655
 31
0.0
  0
LINE
  8
0
 62
     0
 10
94.1751
 20
11.9655
 30
0.0
 11
97.5942
 21
11.9655
 31
0.0
  0
LINE
  8
0
 62
     0
 10
97.5942
 20
11.9655
 30
0.0
 11
97.5942
 21
12.9453
 31
0.0
  0
LINE
  8
0
 62
     0
 10
97.5942
 20
12.9453
 30
0.0
 11
99.3193
 21
12.9453
 31
0.0
  0
LINE
  8
0
 62
     0
 10
99.3193
 20
12.9453
 30
0.0
 11
99.3193
 21
17.4157
 31
0.0
  0
LINE
  8
0
 62
     0
 10
99.3193
 20
17.4157
 30
0.0
 11
138.825
 21
17.4157
 31
0.0
  0
LINE
  8
0
 62
     0
 10
138.825
 20
17.4157
 30
0.0
 11
138.825
 21
12.7152
 31
0.0
  0
LINE
  8
0
 62
     0
 10
138.825
 20
12.7152
 30
0.0
 11
159.97
 21
12.7152
 31
0.0
  0
LINE
  8
0
 62
     0
 10
159.97
 20
12.7152
 30
0.0
 11
159.97
 21
17.4157
 31
0.0
  0
LINE
  8
0
 62
     0
 10
159.97
 20
17.4157
 30
0.0
 11
187.569
 21
17.4157
 31
0.0
  0
LINE
  8
0
 62
     0
 10
187.569
 20
17.4157
 30
0.0
 11
187.569
 21
12.9453
 31
0.0
  0
LINE
  8
0
 62
     0
 10
187.569
 20
12.9453
 30
0.0
 11
189.294
 21
12.9453
 31
0.0
  0
LINE
  8
0
 62
     0
 10
189.294
 20
12.9453
 30
0.0
 11
189.294
 21
11.9655
 31
0.0
  0
LINE
  8
0
 62
     0
 10
189.294
 20
11.9655
 30
0.0
 11
192.595
 21
11.9655
 31
0.0
  0
LINE
  8
0
 62
     0
 10
192.595
 20
11.9655
 30
0.0
 11
192.595
 21
12.9453
 31
0.0
  0
LINE
  8
0
 62
     0
 10
192.595
 20
12.9453
 30
0.0
 11
194.175
 21
12.9453
 31
0.0
  0
LINE
  8
0
 62
     0
 10
194.175
 20
12.9453
 30
0.0
 11
194.175
 21
11.9655
 31
0.0
  0
LINE
  8
0
 62
     0
 10
194.175
 20
11.9655
 30
0.0
 11
197.475
 21
11.9655
 31
0.0
  0
LINE
  8
0
 62
     0
 10
197.475
 20
11.9655
 30
0.0
 11
197.475
 21
12.9453
 31
0.0
  0
LINE
  8
0
 62
     0
 10
197.475
 20
12.9453
 30
0.0
 11
199.201
 21
12.9453
 31
0.0
  0
LINE
  8
0
 62
     0
 10
199.201
 20
12.9453
 30
0.0
 11
199.201
 21
19.2154
 31
0.0
  0
LINE
  8
0
 62
     0
 10
199.201
 20
19.2154
 30
0.0
 11
200.025
 21
19.2154
 31
0.0
  0
LINE
  8
0
 62
     0
 10
200.025
 20
19.2154
 30
0.0
 11
200.025
 21
22.0156
 31
0.0
  0
LINE
  8
0
 62
     0
 10
200.025
 20
22.0156
 30
0.0
 11
199.201
 21
22.0156
 31
0.0
  0
LINE
  8
0
 62
     0
 10
199.201
 20
22.0156
 30
0.0
 11
199.201
 21
25.2457
 31
0.0
  0
LINE
  8
0
 62
     0
 10
199.201
 20
25.2457
 30
0.0
 11
197.475
 21
25.2457
 31
0.0
  0
LINE
  8
0
 62
     0
 10
197.475
 20
25.2457
 30
0.0
 11
197.475
 21
26.1662
 31
0.0
  0
LINE
  8
0
 62
     0
 10
197.475
 20
26.1662
 30
0.0
 11
194.175
 21
26.1662
 31
0.0
  0
LINE
  8
0
 62
     0
 10
194.175
 20
26.1662
 30
0.0
 11
194.175
 21
25.2457
 31
0.0
  0
LINE
  8
0
 62
     0
 10
194.175
 20
25.2457
 30
0.0
 11
192.595
 21
25.2457
 31
0.0
  0
LINE
  8
0
 62
     0
 10
192.595
 20
25.2457
 30
0.0
 11
192.595
 21
26.1662
 31
0.0
  0
LINE
  8
0
 62
     0
 10
192.595
 20
26.1662
 30
0.0
 11
189.294
 21
26.1662
 31
0.0
  0
LINE
  8
0
 62
     0
 10
189.294
 20
26.1662
 30
0.0
 11
189.294
 21
25.2457
 31
0.0
  0
LINE
  8
0
 62
     0
 10
189.294
 20
25.2457
 30
0.0
 11
187.569
 21
25.2457
 31
0.0
  0
LINE
  8
0
 62
     0
 10
187.569
 20
25.2457
 30
0.0
 11
187.569
 21
22.0156
 31
0.0
  0
LINE
  8
0
 62
     0
 10
187.569
 20
22.0156
 30
0.0
 11
159.97
 21
22.0156
 31
0.0
  0
LINE
  8
0
 62
     0
 10
159.97
 20
22.0156
 30
0.0
 11
159.97
 21
26.716
 31
0.0
  0
LINE
  8
0
 62
     0
 10
159.97
 20
26.716
 30
0.0
 11
138.825
 21
26.716
 31
0.0
  0
LINE
  8
0
 62
     0
 10
322.181
 20
21.9535
 30
0.0
 11
336.182
 21
21.9535
 31
0.0
  0
LINE
  8
0
 62
     0
 10
336.182
 20
21.9535
 30
0.0
 11
336.182
 21
7.95405
 31
0.0
  0
LINE
  8
0
 62
     0
 10
336.182
 20
7.95405
 30
0.0
 11
322.181
 21
7.95405
 31
0.0
  0
LINE
  8
0
 62
     0
 10
322.181
 20
7.95405
 30
0.0
 11
322.181
 21
21.9535
 31
0.0
  0
LINE
  8
0
 62
     0
 10
303.131
 20
21.9535
 30
0.0
 11
317.132
 21
21.9535
 31
0.0
  0
LINE
  8
0
 62
     0
 10
317.132
 20
21.9535
 30
0.0
 11
317.132
 21
7.95405
 31
0.0
  0
LINE
  8
0
 62
     0
 10
317.132
 20
7.95405
 30
0.0
 11
303.131
 21
7.95405
 31
0.0
  0
LINE
  8
0
 62
     0
 10
303.131
 20
7.95405
 30
0.0
 11
303.131
 21
21.9535
 31
0.0
  0
LINE
  8
0
 62
     0
 10
284.081
 20
21.9535
 30
0.0
 11
298.082
 21
21.9535
 31
0.0
  0
LINE
  8
0
 62
     0
 10
298.082
 20
21.9535
 30
0.0
 11
298.082
 21
7.95405
 31
0.0
  0
LINE
  8
0
 62
     0
 10
298.082
 20
7.95405
 30
0.0
 11
284.081
 21
7.95405
 31
0.0
  0
LINE
  8
0
 62
     0
 10
284.081
 20
7.95405
 30
0.0
 11
284.081
 21
21.9535
 31
0.0
  0
LINE
  8
0
 62
     0
 10
255.505
 20
26.716
 30
0.0
 11
271.887
 21
26.716
 31
0.0
  0
LINE
  8
0
 62
     0
 10
271.887
 20
26.716
 30
0.0
 11
271.887
 21
12.7152
 31
0.0
  0
LINE
  8
0
 62
     0
 10
271.887
 20
12.7152
 30
0.0
 11
255.505
 21
12.7152
 31
0.0
  0
LINE
  8
0
 62
     0
 10
255.505
 20
12.7152
 30
0.0
 11
255.505
 21
26.716
 31
0.0
  0
LINE
  8
0
 62
     0
 10
231.695
 20
26.716
 30
0.0
 11
248.076
 21
26.716
 31
0.0
  0
LINE
  8
0
 62
     0
 10
248.076
 20
26.716
 30
0.0
 11
248.076
 21
12.7152
 31
0.0
  0
LINE
  8
0
 62
     0
 10
248.076
 20
12.7152
 30
0.0
 11
231.695
 21
12.7152
 31
0.0
  0
LINE
  8
0
 62
     0
 10
231.695
 20
12.7152
 30
0.0
 11
231.695
 21
26.716
 31
0.0
  0
LINE
  8
0
 62
     0
 10
207.881
 20
26.716
 30
0.0
 11
224.262
 21
26.716
 31
0.0
  0
LINE
  8
0
 62
     0
 10
224.262
 20
26.716
 30
0.0
 11
224.262
 21
12.7152
 31
0.0
  0
LINE
  8
0
 62
     0
 10
224.262
 20
12.7152
 30
0.0
 11
207.881
 21
12.7152
 31
0.0
  0
LINE
  8
0
 62
     0
 10
207.881
 20
12.7152
 30
0.0
 11
207.881
 21
26.716
 31
0.0
  0
LINE
  8
0
 62
     0
 10
365.044
 20
26.716
 30
0.0
 11
379.046
 21
26.716
 31
0.0
  0
LINE
  8
0
 62
     0
 10
379.046
 20
26.716
 30
0.0
 11
379.046
 21
12.7152
 31
0.0
  0
LINE
  8
0
 62
     0
 10
379.046
 20
12.7152
 30
0.0
 11
365.044
 21
12.7152
 31
0.0
  0
LINE
  8
0
 62
     0
 10
365.044
 20
12.7152
 30
0.0
 11
365.044
 21
26.716
 31
0.0
  0
LINE
  8
0
 62
     0
 10
345.995
 20
26.716
 30
0.0
 11
359.996
 21
26.716
 31
0.0
  0
LINE
  8
0
 62
     0
 10
359.996
 20
26.716
 30
0.0
 11
359.996
 21
12.7152
 31
0.0
  0
LINE
  8
0
 62
     0
 10
359.996
 20
12.7152
 30
0.0
 11
345.995
 21
12.7152
 31
0.0
  0
LINE
  8
0
 62
     0
 10
345.995
 20
12.7152
 30
0.0
 11
345.995
 21
26.716
 31
0.0
  0
LINE
  8
0
 62
     0
 10
69.7699
 20
26.716
 30
0.0
 11
83.7696
 21
26.716
 31
0.0
  0
LINE
  8
0
 62
     0
 10
83.7696
 20
26.716
 30
0.0
 11
83.7696
 21
12.7152
 31
0.0
  0
LINE
  8
0
 62
     0
 10
83.7696
 20
12.7152
 30
0.0
 11
69.7699
 21
12.7152
 31
0.0
  0
LINE
  8
0
 62
     0
 10
69.7699
 20
12.7152
 30
0.0
 11
69.7699
 21
26.716
 31
0.0
  0
LINE
  8
0
 62
     0
 10
50.7199
 20
26.716
 30
0.0
 11
64.7196
 21
26.716
 31
0.0
  0
LINE
  8
0
 62
     0
 10
64.7196
 20
26.716
 30
0.0
 11
64.7196
 21
12.7152
 31
0.0
  0
LINE
  8
0
 62
     0
 10
64.7196
 20
12.7152
 30
0.0
 11
50.7199
 21
12.7152
 31
0.0
  0
LINE
  8
0
 62
     0
 10
50.7199
 20
12.7152
 30
0.0
 11
50.7199
 21
26.716
 31
0.0
  0
LINE
  8
0
 62
     0
 10
31.6701
 20
26.716
 30
0.0
 11
45.6696
 21
26.716
 31
0.0
  0
LINE
  8
0
 62
     0
 10
45.6696
 20
26.716
 30
0.0
 11
45.6696
 21
12.7152
 31
0.0
  0
LINE
  8
0
 62
     0
 10
45.6696
 20
12.7152
 30
0.0
 11
31.6701
 21
12.7152
 31
0.0
  0
LINE
  8
0
 62
     0
 10
31.6701
 20
12.7152
 30
0.0
 11
31.6701
 21
26.716
 31
0.0
  0
LINE
  8
0
 62
     0
 10
12.6201
 20
26.716
 30
0.0
 11
26.6196
 21
26.716
 31
0.0
  0
LINE
  8
0
 62
     0
 10
26.6196
 20
26.716
 30
0.0
 11
26.6196
 21
12.7152
 31
0.0
  0
LINE
  8
0
 62
     0
 10
26.6196
 20
12.7152
 30
0.0
 11
12.6201
 21
12.7152
 31
0.0
  0
LINE
  8
0
 62
     0
 10
12.6201
 20
12.7152
 30
0.0
 11
12.6201
 21
26.716
 31
0.0
  0
LINE
  8
0
 62
     0
 10
390.596
 20
45.3401
 30
0.0
 11
390.596
 21
44.5163
 31
0.0
  0
LINE
  8
0
 62
     0
 10
390.596
 20
44.5163
 30
0.0
 11
384.323
 21
44.5163
 31
0.0
  0
LINE
  8
0
 62
     0
 10
384.323
 20
44.5163
 30
0.0
 11
384.323
 21
42.7909
 31
0.0
  0
LINE
  8
0
 62
     0
 10
384.323
 20
42.7909
 30
0.0
 11
383.342
 21
42.7909
 31
0.0
  0
LINE
  8
0
 62
     0
 10
383.342
 20
42.7909
 30
0.0
 11
383.342
 21
39.4903
 31
0.0
  0
LINE
  8
0
 62
     0
 10
383.342
 20
39.4903
 30
0.0
 11
384.323
 21
39.4903
 31
0.0
  0
LINE
  8
0
 62
     0
 10
384.323
 20
39.4903
 30
0.0
 11
384.323
 21
37.7652
 31
0.0
  0
LINE
  8
0
 62
     0
 10
384.323
 20
37.7652
 30
0.0
 11
388.793
 21
37.7652
 31
0.0
  0
LINE
  8
0
 62
     0
 10
388.793
 20
37.7652
 30
0.0
 11
388.793
 21
36.2409
 31
0.0
  0
LINE
  8
0
 62
     0
 10
388.793
 20
36.2409
 30
0.0
 11
384.094
 21
36.2409
 31
0.0
  0
LINE
  8
0
 62
     0
 10
384.094
 20
36.2409
 30
0.0
 11
384.094
 21
22.2402
 31
0.0
  0
LINE
  8
0
 62
     0
 10
384.094
 20
22.2402
 30
0.0
 11
388.793
 21
22.2402
 31
0.0
  0
LINE
  8
0
 62
     0
 10
388.793
 20
22.2402
 30
0.0
 11
388.793
 21
20.7161
 31
0.0
  0
LINE
  8
0
 62
     0
 10
388.793
 20
20.7161
 30
0.0
 11
384.323
 21
20.7161
 31
0.0
  0
LINE
  8
0
 62
     0
 10
384.323
 20
20.7161
 30
0.0
 11
384.323
 21
18.9907
 31
0.0
  0
LINE
  8
0
 62
     0
 10
384.323
 20
18.9907
 30
0.0
 11
383.342
 21
18.9907
 31
0.0
  0
LINE
  8
0
 62
     0
 10
383.342
 20
18.9907
 30
0.0
 11
383.342
 21
15.6904
 31
0.0
  0
LINE
  8
0
 62
     0
 10
383.342
 20
15.6904
 30
0.0
 11
384.323
 21
15.6904
 31
0.0
  0
LINE
  8
0
 62
     0
 10
384.323
 20
15.6904
 30
0.0
 11
384.323
 21
13.965
 31
0.0
  0
LINE
  8
0
 62
     0
 10
384.323
 20
13.965
 30
0.0
 11
390.596
 21
13.965
 31
0.0
  0
LINE
  8
0
 62
     0
 10
390.596
 20
13.965
 30
0.0
 11
390.596
 21
13.141
 31
0.0
  0
LINE
  8
0
 62
     0
 10
390.596
 20
13.141
 30
0.0
 11
393.393
 21
13.141
 31
0.0
  0
LINE
  8
0
 62
     0
 10
393.393
 20
13.141
 30
0.0
 11
393.393
 21
13.965
 31
0.0
  0
LINE
  8
0
 62
     0
 10
393.393
 20
13.965
 30
0.0
 11
396.625
 21
13.965
 31
0.0
  0
LINE
  8
0
 62
     0
 10
396.625
 20
13.965
 30
0.0
 11
396.625
 21
15.6904
 31
0.0
  0
LINE
  8
0
 62
     0
 10
396.625
 20
15.6904
 30
0.0
 11
397.545
 21
15.6904
 31
0.0
  0
LINE
  8
0
 62
     0
 10
397.545
 20
15.6904
 30
0.0
 11
397.545
 21
18.9907
 31
0.0
  0
LINE
  8
0
 62
     0
 10
397.545
 20
18.9907
 30
0.0
 11
396.625
 21
18.9907
 31
0.0
  0
LINE
  8
0
 62
     0
 10
396.625
 20
18.9907
 30
0.0
 11
396.625
 21
20.7161
 31
0.0
  0
LINE
  8
0
 62
     0
 10
396.625
 20
20.7161
 30
0.0
 11
393.393
 21
20.7161
 31
0.0
  0
LINE
  8
0
 62
     0
 10
393.393
 20
20.7161
 30
0.0
 11
393.393
 21
22.2402
 31
0.0
  0
LINE
  8
0
 62
     0
 10
393.393
 20
22.2402
 30
0.0
 11
398.096
 21
22.2402
 31
0.0
  0
LINE
  8
0
 62
     0
 10
398.096
 20
22.2402
 30
0.0
 11
398.096
 21
36.2409
 31
0.0
  0
LINE
  8
0
 62
     0
 10
398.096
 20
36.2409
 30
0.0
 11
393.393
 21
36.2409
 31
0.0
  0
LINE
  8
0
 62
     0
 10
393.393
 20
36.2409
 30
0.0
 11
393.393
 21
37.7652
 31
0.0
  0
LINE
  8
0
 62
     0
 10
393.393
 20
37.7652
 30
0.0
 11
396.625
 21
37.7652
 31
0.0
  0
LINE
  8
0
 62
     0
 10
396.625
 20
37.7652
 30
0.0
 11
396.625
 21
39.4903
 31
0.0
  0
LINE
  8
0
 62
     0
 10
396.625
 20
39.4903
 30
0.0
 11
397.545
 21
39.4903
 31
0.0
  0
LINE
  8
0
 62
     0
 10
397.545
 20
39.4903
 30
0.0
 11
397.545
 21
42.7909
 31
0.0
  0
LINE
  8
0
 62
     0
 10
397.545
 20
42.7909
 30
0.0
 11
396.625
 21
42.7909
 31
0.0
  0
LINE
  8
0
 62
     0
 10
396.625
 20
42.7909
 30
0.0
 11
396.625
 21
44.5163
 31
0.0
  0
LINE
  8
0
 62
     0
 10
396.625
 20
44.5163
 30
0.0
 11
393.393
 21
44.5163
 31
0.0
  0
LINE
  8
0
 62
     0
 10
393.393
 20
44.5163
 30
0.0
 11
393.393
 21
45.3401
 31
0.0
  0
LINE
  8
0
 62
     0
 10
393.393
 20
45.3401
 30
0.0
 11
390.596
 21
45.3401
 31
0.0
  0
LINE
  8
0
 62
     0
 10
303.131
 20
41.0023
 30
0.0
 11
317.132
 21
41.0023
 31
0.0
  0
LINE
  8
0
 62
     0
 10
317.132
 20
41.0023
 30
0.0
 11
317.132
 21
27.0027
 31
0.0
  0
LINE
  8
0
 62
     0
 10
317.132
 20
27.0027
 30
0.0
 11
303.131
 21
27.0027
 31
0.0
  0
LINE
  8
0
 62
     0
 10
303.131
 20
27.0027
 30
0.0
 11
303.131
 21
41.0023
 31
0.0
  0
LINE
  8
0
 62
     0
 10
262.65
 20
45.7659
 30
0.0
 11
262.65
 21
41.0654
 31
0.0
  0
LINE
  8
0
 62
     0
 10
262.65
 20
41.0654
 30
0.0
 11
261.126
 21
41.0654
 31
0.0
  0
LINE
  8
0
 62
     0
 10
261.126
 20
41.0654
 30
0.0
 11
261.126
 21
44.2958
 31
0.0
  0
LINE
  8
0
 62
     0
 10
261.126
 20
44.2958
 30
0.0
 11
259.401
 21
44.2958
 31
0.0
  0
LINE
  8
0
 62
     0
 10
259.401
 20
44.2958
 30
0.0
 11
259.401
 21
45.2162
 31
0.0
  0
LINE
  8
0
 62
     0
 10
259.401
 20
45.2162
 30
0.0
 11
256.1
 21
45.2162
 31
0.0
  0
LINE
  8
0
 62
     0
 10
256.1
 20
45.2162
 30
0.0
 11
256.1
 21
44.2958
 31
0.0
  0
LINE
  8
0
 62
     0
 10
256.1
 20
44.2958
 30
0.0
 11
254.375
 21
44.2958
 31
0.0
  0
LINE
  8
0
 62
     0
 10
254.375
 20
44.2958
 30
0.0
 11
254.375
 21
41.0654
 31
0.0
  0
LINE
  8
0
 62
     0
 10
254.375
 20
41.0654
 30
0.0
 11
253.551
 21
41.0654
 31
0.0
  0
LINE
  8
0
 62
     0
 10
253.551
 20
41.0654
 30
0.0
 11
253.551
 21
38.2655
 31
0.0
  0
LINE
  8
0
 62
     0
 10
253.551
 20
38.2655
 30
0.0
 11
254.375
 21
38.2655
 31
0.0
  0
LINE
  8
0
 62
     0
 10
254.375
 20
38.2655
 30
0.0
 11
254.375
 21
31.9953
 31
0.0
  0
LINE
  8
0
 62
     0
 10
254.375
 20
31.9953
 30
0.0
 11
256.1
 21
31.9953
 31
0.0
  0
LINE
  8
0
 62
     0
 10
256.1
 20
31.9953
 30
0.0
 11
256.1
 21
31.0155
 31
0.0
  0
LINE
  8
0
 62
     0
 10
256.1
 20
31.0155
 30
0.0
 11
259.401
 21
31.0155
 31
0.0
  0
LINE
  8
0
 62
     0
 10
259.401
 20
31.0155
 30
0.0
 11
259.401
 21
31.9953
 31
0.0
  0
LINE
  8
0
 62
     0
 10
259.401
 20
31.9953
 30
0.0
 11
261.126
 21
31.9953
 31
0.0
  0
LINE
  8
0
 62
     0
 10
261.126
 20
31.9953
 30
0.0
 11
261.126
 21
36.4656
 31
0.0
  0
LINE
  8
0
 62
     0
 10
261.126
 20
36.4656
 30
0.0
 11
262.65
 21
36.4656
 31
0.0
  0
LINE
  8
0
 62
     0
 10
262.65
 20
36.4656
 30
0.0
 11
262.65
 21
31.7652
 31
0.0
  0
LINE
  8
0
 62
     0
 10
262.65
 20
31.7652
 30
0.0
 11
276.651
 21
31.7652
 31
0.0
  0
LINE
  8
0
 62
     0
 10
276.651
 20
31.7652
 30
0.0
 11
276.651
 21
36.4656
 31
0.0
  0
LINE
  8
0
 62
     0
 10
276.651
 20
36.4656
 30
0.0
 11
278.175
 21
36.4656
 31
0.0
  0
LINE
  8
0
 62
     0
 10
278.175
 20
36.4656
 30
0.0
 11
278.175
 21
31.9953
 31
0.0
  0
LINE
  8
0
 62
     0
 10
278.175
 20
31.9953
 30
0.0
 11
279.9
 21
31.9953
 31
0.0
  0
LINE
  8
0
 62
     0
 10
279.9
 20
31.9953
 30
0.0
 11
279.9
 21
31.0155
 31
0.0
  0
LINE
  8
0
 62
     0
 10
279.9
 20
31.0155
 30
0.0
 11
283.2
 21
31.0155
 31
0.0
  0
LINE
  8
0
 62
     0
 10
283.2
 20
31.0155
 30
0.0
 11
283.2
 21
31.9953
 31
0.0
  0
LINE
  8
0
 62
     0
 10
283.2
 20
31.9953
 30
0.0
 11
284.926
 21
31.9953
 31
0.0
  0
LINE
  8
0
 62
     0
 10
284.926
 20
31.9953
 30
0.0
 11
284.926
 21
38.2655
 31
0.0
  0
LINE
  8
0
 62
     0
 10
284.926
 20
38.2655
 30
0.0
 11
285.75
 21
38.2655
 31
0.0
  0
LINE
  8
0
 62
     0
 10
285.75
 20
38.2655
 30
0.0
 11
285.75
 21
41.0654
 31
0.0
  0
LINE
  8
0
 62
     0
 10
285.75
 20
41.0654
 30
0.0
 11
284.926
 21
41.0654
 31
0.0
  0
LINE
  8
0
 62
     0
 10
284.926
 20
41.0654
 30
0.0
 11
284.926
 21
44.2958
 31
0.0
  0
LINE
  8
0
 62
     0
 10
284.926
 20
44.2958
 30
0.0
 11
283.2
 21
44.2958
 31
0.0
  0
LINE
  8
0
 62
     0
 10
283.2
 20
44.2958
 30
0.0
 11
283.2
 21
45.2162
 31
0.0
  0
LINE
  8
0
 62
     0
 10
283.2
 20
45.2162
 30
0.0
 11
279.9
 21
45.2162
 31
0.0
  0
LINE
  8
0
 62
     0
 10
279.9
 20
45.2162
 30
0.0
 11
279.9
 21
44.2958
 31
0.0
  0
LINE
  8
0
 62
     0
 10
279.9
 20
44.2958
 30
0.0
 11
278.175
 21
44.2958
 31
0.0
  0
LINE
  8
0
 62
     0
 10
278.175
 20
44.2958
 30
0.0
 11
278.175
 21
41.0654
 31
0.0
  0
LINE
  8
0
 62
     0
 10
278.175
 20
41.0654
 30
0.0
 11
276.651
 21
41.0654
 31
0.0
  0
LINE
  8
0
 62
     0
 10
276.651
 20
41.0654
 30
0.0
 11
276.651
 21
45.7659
 31
0.0
  0
LINE
  8
0
 62
     0
 10
276.651
 20
45.7659
 30
0.0
 11
262.65
 21
45.7659
 31
0.0
  0
LINE
  8
0
 62
     0
 10
24.5249
 20
45.7659
 30
0.0
 11
24.5249
 21
41.0654
 31
0.0
  0
LINE
  8
0
 62
     0
 10
24.5249
 20
41.0654
 30
0.0
 11
23.0008
 21
41.0654
 31
0.0
  0
LINE
  8
0
 62
     0
 10
23.0008
 20
41.0654
 30
0.0
 11
23.0008
 21
44.2958
 31
0.0
  0
LINE
  8
0
 62
     0
 10
23.0008
 20
44.2958
 30
0.0
 11
21.2755
 21
44.2958
 31
0.0
  0
LINE
  8
0
 62
     0
 10
21.2755
 20
44.2958
 30
0.0
 11
21.2755
 21
45.2162
 31
0.0
  0
LINE
  8
0
 62
     0
 10
21.2755
 20
45.2162
 30
0.0
 11
17.9751
 21
45.2162
 31
0.0
  0
LINE
  8
0
 62
     0
 10
17.9751
 20
45.2162
 30
0.0
 11
17.9751
 21
44.2958
 31
0.0
  0
LINE
  8
0
 62
     0
 10
17.9751
 20
44.2958
 30
0.0
 11
16.2498
 21
44.2958
 31
0.0
  0
LINE
  8
0
 62
     0
 10
16.2498
 20
44.2958
 30
0.0
 11
16.2498
 21
41.0654
 31
0.0
  0
LINE
  8
0
 62
     0
 10
16.2498
 20
41.0654
 30
0.0
 11
15.4258
 21
41.0654
 31
0.0
  0
LINE
  8
0
 62
     0
 10
15.4258
 20
41.0654
 30
0.0
 11
15.4258
 21
38.2655
 31
0.0
  0
LINE
  8
0
 62
     0
 10
15.4258
 20
38.2655
 30
0.0
 11
16.2498
 21
38.2655
 31
0.0
  0
LINE
  8
0
 62
     0
 10
16.2498
 20
38.2655
 30
0.0
 11
16.2498
 21
31.9953
 31
0.0
  0
LINE
  8
0
 62
     0
 10
16.2498
 20
31.9953
 30
0.0
 11
17.9751
 21
31.9953
 31
0.0
  0
LINE
  8
0
 62
     0
 10
17.9751
 20
31.9953
 30
0.0
 11
17.9751
 21
31.0155
 31
0.0
  0
LINE
  8
0
 62
     0
 10
17.9751
 20
31.0155
 30
0.0
 11
21.2755
 21
31.0155
 31
0.0
  0
LINE
  8
0
 62
     0
 10
21.2755
 20
31.0155
 30
0.0
 11
21.2755
 21
31.9953
 31
0.0
  0
LINE
  8
0
 62
     0
 10
21.2755
 20
31.9953
 30
0.0
 11
23.0008
 21
31.9953
 31
0.0
  0
LINE
  8
0
 62
     0
 10
23.0008
 20
31.9953
 30
0.0
 11
23.0008
 21
36.4656
 31
0.0
  0
LINE
  8
0
 62
     0
 10
23.0008
 20
36.4656
 30
0.0
 11
24.5249
 21
36.4656
 31
0.0
  0
LINE
  8
0
 62
     0
 10
24.5249
 20
36.4656
 30
0.0
 11
24.5249
 21
31.7652
 31
0.0
  0
LINE
  8
0
 62
     0
 10
24.5249
 20
31.7652
 30
0.0
 11
38.5258
 21
31.7652
 31
0.0
  0
LINE
  8
0
 62
     0
 10
38.5258
 20
31.7652
 30
0.0
 11
38.5258
 21
36.4656
 31
0.0
  0
LINE
  8
0
 62
     0
 10
38.5258
 20
36.4656
 30
0.0
 11
40.0498
 21
36.4656
 31
0.0
  0
LINE
  8
0
 62
     0
 10
40.0498
 20
36.4656
 30
0.0
 11
40.0498
 21
31.9953
 31
0.0
  0
LINE
  8
0
 62
     0
 10
40.0498
 20
31.9953
 30
0.0
 11
41.7752
 21
31.9953
 31
0.0
  0
LINE
  8
0
 62
     0
 10
41.7752
 20
31.9953
 30
0.0
 11
41.7752
 21
31.0155
 31
0.0
  0
LINE
  8
0
 62
     0
 10
41.7752
 20
31.0155
 30
0.0
 11
45.0755
 21
31.0155
 31
0.0
  0
LINE
  8
0
 62
     0
 10
45.0755
 20
31.0155
 30
0.0
 11
45.0755
 21
31.9953
 31
0.0
  0
LINE
  8
0
 62
     0
 10
45.0755
 20
31.9953
 30
0.0
 11
46.8009
 21
31.9953
 31
0.0
  0
LINE
  8
0
 62
     0
 10
46.8009
 20
31.9953
 30
0.0
 11
46.8009
 21
38.2655
 31
0.0
  0
LINE
  8
0
 62
     0
 10
46.8009
 20
38.2655
 30
0.0
 11
47.625
 21
38.2655
 31
0.0
  0
LINE
  8
0
 62
     0
 10
47.625
 20
38.2655
 30
0.0
 11
47.625
 21
41.0654
 31
0.0
  0
LINE
  8
0
 62
     0
 10
47.625
 20
41.0654
 30
0.0
 11
46.8009
 21
41.0654
 31
0.0
  0
LINE
  8
0
 62
     0
 10
46.8009
 20
41.0654
 30
0.0
 11
46.8009
 21
44.2958
 31
0.0
  0
LINE
  8
0
 62
     0
 10
46.8009
 20
44.2958
 30
0.0
 11
45.0755
 21
44.2958
 31
0.0
  0
LINE
  8
0
 62
     0
 10
45.0755
 20
44.2958
 30
0.0
 11
45.0755
 21
45.2162
 31
0.0
  0
LINE
  8
0
 62
     0
 10
45.0755
 20
45.2162
 30
0.0
 11
41.7752
 21
45.2162
 31
0.0
  0
LINE
  8
0
 62
     0
 10
41.7752
 20
45.2162
 30
0.0
 11
41.7752
 21
44.2958
 31
0.0
  0
LINE
  8
0
 62
     0
 10
41.7752
 20
44.2958
 30
0.0
 11
40.0498
 21
44.2958
 31
0.0
  0
LINE
  8
0
 62
     0
 10
40.0498
 20
44.2958
 30
0.0
 11
40.0498
 21
41.0654
 31
0.0
  0
LINE
  8
0
 62
     0
 10
40.0498
 20
41.0654
 30
0.0
 11
38.5258
 21
41.0654
 31
0.0
  0
LINE
  8
0
 62
     0
 10
38.5258
 20
41.0654
 30
0.0
 11
38.5258
 21
45.7659
 31
0.0
  0
LINE
  8
0
 62
     0
 10
38.5258
 20
45.7659
 30
0.0
 11
24.5249
 21
45.7659
 31
0.0
  0
LINE
  8
0
 62
     0
 10
365.044
 20
45.7659
 30
0.0
 11
379.046
 21
45.7659
 31
0.0
  0
LINE
  8
0
 62
     0
 10
379.046
 20
45.7659
 30
0.0
 11
379.046
 21
31.7652
 31
0.0
  0
LINE
  8
0
 62
     0
 10
379.046
 20
31.7652
 30
0.0
 11
365.044
 21
31.7652
 31
0.0
  0
LINE
  8
0
 62
     0
 10
365.044
 20
31.7652
 30
0.0
 11
365.044
 21
45.7659
 31
0.0
  0
LINE
  8
0
 62
     0
 10
345.995
 20
45.7659
 30
0.0
 11
359.996
 21
45.7659
 31
0.0
  0
LINE
  8
0
 62
     0
 10
359.996
 20
45.7659
 30
0.0
 11
359.996
 21
31.7652
 31
0.0
  0
LINE
  8
0
 62
     0
 10
359.996
 20
31.7652
 30
0.0
 11
345.995
 21
31.7652
 31
0.0
  0
LINE
  8
0
 62
     0
 10
345.995
 20
31.7652
 30
0.0
 11
345.995
 21
45.7659
 31
0.0
  0
LINE
  8
0
 62
     0
 10
326.945
 20
45.7659
 30
0.0
 11
340.945
 21
45.7659
 31
0.0
  0
LINE
  8
0
 62
     0
 10
340.945
 20
45.7659
 30
0.0
 11
340.945
 21
31.7652
 31
0.0
  0
LINE
  8
0
 62
     0
 10
340.945
 20
31.7652
 30
0.0
 11
326.945
 21
31.7652
 31
0.0
  0
LINE
  8
0
 62
     0
 10
326.945
 20
31.7652
 30
0.0
 11
326.945
 21
45.7659
 31
0.0
  0
LINE
  8
0
 62
     0
 10
226.931
 20
45.7659
 30
0.0
 11
240.932
 21
45.7659
 31
0.0
  0
LINE
  8
0
 62
     0
 10
240.932
 20
45.7659
 30
0.0
 11
240.932
 21
31.7652
 31
0.0
  0
LINE
  8
0
 62
     0
 10
240.932
 20
31.7652
 30
0.0
 11
226.931
 21
31.7652
 31
0.0
  0
LINE
  8
0
 62
     0
 10
226.931
 20
31.7652
 30
0.0
 11
226.931
 21
45.7659
 31
0.0
  0
LINE
  8
0
 62
     0
 10
207.881
 20
45.7659
 30
0.0
 11
221.882
 21
45.7659
 31
0.0
  0
LINE
  8
0
 62
     0
 10
221.882
 20
45.7659
 30
0.0
 11
221.882
 21
31.7652
 31
0.0
  0
LINE
  8
0
 62
     0
 10
221.882
 20
31.7652
 30
0.0
 11
207.881
 21
31.7652
 31
0.0
  0
LINE
  8
0
 62
     0
 10
207.881
 20
31.7652
 30
0.0
 11
207.881
 21
45.7659
 31
0.0
  0
LINE
  8
0
 62
     0
 10
188.831
 20
45.7659
 30
0.0
 11
202.832
 21
45.7659
 31
0.0
  0
LINE
  8
0
 62
     0
 10
202.832
 20
45.7659
 30
0.0
 11
202.832
 21
31.7652
 31
0.0
  0
LINE
  8
0
 62
     0
 10
202.832
 20
31.7652
 30
0.0
 11
188.831
 21
31.7652
 31
0.0
  0
LINE
  8
0
 62
     0
 10
188.831
 20
31.7652
 30
0.0
 11
188.831
 21
45.7659
 31
0.0
  0
LINE
  8
0
 62
     0
 10
169.781
 20
45.7659
 30
0.0
 11
183.782
 21
45.7659
 31
0.0
  0
LINE
  8
0
 62
     0
 10
183.782
 20
45.7659
 30
0.0
 11
183.782
 21
31.7652
 31
0.0
  0
LINE
  8
0
 62
     0
 10
183.782
 20
31.7652
 30
0.0
 11
169.781
 21
31.7652
 31
0.0
  0
LINE
  8
0
 62
     0
 10
169.781
 20
31.7652
 30
0.0
 11
169.781
 21
45.7659
 31
0.0
  0
LINE
  8
0
 62
     0
 10
150.731
 20
45.7659
 30
0.0
 11
164.732
 21
45.7659
 31
0.0
  0
LINE
  8
0
 62
     0
 10
164.732
 20
45.7659
 30
0.0
 11
164.732
 21
31.7652
 31
0.0
  0
LINE
  8
0
 62
     0
 10
164.732
 20
31.7652
 30
0.0
 11
150.731
 21
31.7652
 31
0.0
  0
LINE
  8
0
 62
     0
 10
150.731
 20
31.7652
 30
0.0
 11
150.731
 21
45.7659
 31
0.0
  0
LINE
  8
0
 62
     0
 10
131.681
 20
45.7659
 30
0.0
 11
145.682
 21
45.7659
 31
0.0
  0
LINE
  8
0
 62
     0
 10
145.682
 20
45.7659
 30
0.0
 11
145.682
 21
31.7652
 31
0.0
  0
LINE
  8
0
 62
     0
 10
145.682
 20
31.7652
 30
0.0
 11
131.681
 21
31.7652
 31
0.0
  0
LINE
  8
0
 62
     0
 10
131.681
 20
31.7652
 30
0.0
 11
131.681
 21
45.7659
 31
0.0
  0
LINE
  8
0
 62
     0
 10
112.631
 20
45.7659
 30
0.0
 11
126.632
 21
45.7659
 31
0.0
  0
LINE
  8
0
 62
     0
 10
126.632
 20
45.7659
 30
0.0
 11
126.632
 21
31.7652
 31
0.0
  0
LINE
  8
0
 62
     0
 10
126.632
 20
31.7652
 30
0.0
 11
112.631
 21
31.7652
 31
0.0
  0
LINE
  8
0
 62
     0
 10
112.631
 20
31.7652
 30
0.0
 11
112.631
 21
45.7659
 31
0.0
  0
LINE
  8
0
 62
     0
 10
93.5814
 20
45.7659
 30
0.0
 11
107.582
 21
45.7659
 31
0.0
  0
LINE
  8
0
 62
     0
 10
107.582
 20
45.7659
 30
0.0
 11
107.582
 21
31.7652
 31
0.0
  0
LINE
  8
0
 62
     0
 10
107.582
 20
31.7652
 30
0.0
 11
93.5814
 21
31.7652
 31
0.0
  0
LINE
  8
0
 62
     0
 10
93.5814
 20
31.7652
 30
0.0
 11
93.5814
 21
45.7659
 31
0.0
  0
LINE
  8
0
 62
     0
 10
74.5314
 20
45.7659
 30
0.0
 11
88.5321
 21
45.7659
 31
0.0
  0
LINE
  8
0
 62
     0
 10
88.5321
 20
45.7659
 30
0.0
 11
88.5321
 21
31.7652
 31
0.0
  0
LINE
  8
0
 62
     0
 10
88.5321
 20
31.7652
 30
0.0
 11
74.5314
 21
31.7652
 31
0.0
  0
LINE
  8
0
 62
     0
 10
74.5314
 20
31.7652
 30
0.0
 11
74.5314
 21
45.7659
 31
0.0
  0
LINE
  8
0
 62
     0
 10
55.4814
 20
45.7659
 30
0.0
 11
69.4821
 21
45.7659
 31
0.0
  0
LINE
  8
0
 62
     0
 10
69.4821
 20
45.7659
 30
0.0
 11
69.4821
 21
31.7652
 31
0.0
  0
LINE
  8
0
 62
     0
 10
69.4821
 20
31.7652
 30
0.0
 11
55.4814
 21
31.7652
 31
0.0
  0
LINE
  8
0
 62
     0
 10
55.4814
 20
31.7652
 30
0.0
 11
55.4814
 21
45.7659
 31
0.0
  0
LINE
  8
0
 62
     0
 10
267.413
 20
64.8159
 30
0.0
 11
267.413
 21
60.1155
 31
0.0
  0
LINE
  8
0
 62
     0
 10
267.413
 20
60.1155
 30
0.0
 11
265.887
 21
60.1155
 31
0.0
  0
LINE
  8
0
 62
     0
 10
265.887
 20
60.1155
 30
0.0
 11
265.887
 21
63.3458
 31
0.0
  0
LINE
  8
0
 62
     0
 10
265.887
 20
63.3458
 30
0.0
 11
264.163
 21
63.3458
 31
0.0
  0
LINE
  8
0
 62
     0
 10
264.163
 20
63.3458
 30
0.0
 11
264.163
 21
64.2662
 31
0.0
  0
LINE
  8
0
 62
     0
 10
264.163
 20
64.2662
 30
0.0
 11
260.863
 21
64.2662
 31
0.0
  0
LINE
  8
0
 62
     0
 10
260.863
 20
64.2662
 30
0.0
 11
260.863
 21
63.3458
 31
0.0
  0
LINE
  8
0
 62
     0
 10
260.863
 20
63.3458
 30
0.0
 11
259.137
 21
63.3458
 31
0.0
  0
LINE
  8
0
 62
     0
 10
259.137
 20
63.3458
 30
0.0
 11
259.137
 21
60.1155
 31
0.0
  0
LINE
  8
0
 62
     0
 10
259.137
 20
60.1155
 30
0.0
 11
258.312
 21
60.1155
 31
0.0
  0
LINE
  8
0
 62
     0
 10
258.312
 20
60.1155
 30
0.0
 11
258.312
 21
57.3155
 31
0.0
  0
LINE
  8
0
 62
     0
 10
258.312
 20
57.3155
 30
0.0
 11
259.137
 21
57.3155
 31
0.0
  0
LINE
  8
0
 62
     0
 10
259.137
 20
57.3155
 30
0.0
 11
259.137
 21
51.0452
 31
0.0
  0
LINE
  8
0
 62
     0
 10
259.137
 20
51.0452
 30
0.0
 11
260.863
 21
51.0452
 31
0.0
  0
LINE
  8
0
 62
     0
 10
260.863
 20
51.0452
 30
0.0
 11
260.863
 21
50.0655
 31
0.0
  0
LINE
  8
0
 62
     0
 10
260.863
 20
50.0655
 30
0.0
 11
264.163
 21
50.0655
 31
0.0
  0
LINE
  8
0
 62
     0
 10
264.163
 20
50.0655
 30
0.0
 11
264.163
 21
51.0452
 31
0.0
  0
LINE
  8
0
 62
     0
 10
264.163
 20
51.0452
 30
0.0
 11
265.887
 21
51.0452
 31
0.0
  0
LINE
  8
0
 62
     0
 10
265.887
 20
51.0452
 30
0.0
 11
265.887
 21
55.5156
 31
0.0
  0
LINE
  8
0
 62
     0
 10
265.887
 20
55.5156
 30
0.0
 11
267.413
 21
55.5156
 31
0.0
  0
LINE
  8
0
 62
     0
 10
267.413
 20
55.5156
 30
0.0
 11
267.413
 21
50.8152
 31
0.0
  0
LINE
  8
0
 62
     0
 10
267.413
 20
50.8152
 30
0.0
 11
281.412
 21
50.8152
 31
0.0
  0
LINE
  8
0
 62
     0
 10
281.412
 20
50.8152
 30
0.0
 11
281.412
 21
55.5156
 31
0.0
  0
LINE
  8
0
 62
     0
 10
281.412
 20
55.5156
 30
0.0
 11
282.937
 21
55.5156
 31
0.0
  0
LINE
  8
0
 62
     0
 10
282.937
 20
55.5156
 30
0.0
 11
282.937
 21
51.0452
 31
0.0
  0
LINE
  8
0
 62
     0
 10
282.937
 20
51.0452
 30
0.0
 11
284.663
 21
51.0452
 31
0.0
  0
LINE
  8
0
 62
     0
 10
284.663
 20
51.0452
 30
0.0
 11
284.663
 21
50.0655
 31
0.0
  0
LINE
  8
0
 62
     0
 10
284.663
 20
50.0655
 30
0.0
 11
287.963
 21
50.0655
 31
0.0
  0
LINE
  8
0
 62
     0
 10
287.963
 20
50.0655
 30
0.0
 11
287.963
 21
51.0452
 31
0.0
  0
LINE
  8
0
 62
     0
 10
287.963
 20
51.0452
 30
0.0
 11
289.687
 21
51.0452
 31
0.0
  0
LINE
  8
0
 62
     0
 10
289.687
 20
51.0452
 30
0.0
 11
289.687
 21
57.3155
 31
0.0
  0
LINE
  8
0
 62
     0
 10
289.687
 20
57.3155
 30
0.0
 11
290.513
 21
57.3155
 31
0.0
  0
LINE
  8
0
 62
     0
 10
290.513
 20
57.3155
 30
0.0
 11
290.513
 21
60.1155
 31
0.0
  0
LINE
  8
0
 62
     0
 10
290.513
 20
60.1155
 30
0.0
 11
289.687
 21
60.1155
 31
0.0
  0
LINE
  8
0
 62
     0
 10
289.687
 20
60.1155
 30
0.0
 11
289.687
 21
63.3458
 31
0.0
  0
LINE
  8
0
 62
     0
 10
289.687
 20
63.3458
 30
0.0
 11
287.963
 21
63.3458
 31
0.0
  0
LINE
  8
0
 62
     0
 10
287.963
 20
63.3458
 30
0.0
 11
287.963
 21
64.2662
 31
0.0
  0
LINE
  8
0
 62
     0
 10
287.963
 20
64.2662
 30
0.0
 11
284.663
 21
64.2662
 31
0.0
  0
LINE
  8
0
 62
     0
 10
284.663
 20
64.2662
 30
0.0
 11
284.663
 21
63.3458
 31
0.0
  0
LINE
  8
0
 62
     0
 10
284.663
 20
63.3458
 30
0.0
 11
282.937
 21
63.3458
 31
0.0
  0
LINE
  8
0
 62
     0
 10
282.937
 20
63.3458
 30
0.0
 11
282.937
 21
60.1155
 31
0.0
  0
LINE
  8
0
 62
     0
 10
282.937
 20
60.1155
 30
0.0
 11
281.412
 21
60.1155
 31
0.0
  0
LINE
  8
0
 62
     0
 10
281.412
 20
60.1155
 30
0.0
 11
281.412
 21
64.8159
 31
0.0
  0
LINE
  8
0
 62
     0
 10
281.412
 20
64.8159
 30
0.0
 11
267.413
 21
64.8159
 31
0.0
  0
LINE
  8
0
 62
     0
 10
365.044
 20
64.8159
 30
0.0
 11
379.046
 21
64.8159
 31
0.0
  0
LINE
  8
0
 62
     0
 10
379.046
 20
64.8159
 30
0.0
 11
379.046
 21
50.8152
 31
0.0
  0
LINE
  8
0
 62
     0
 10
379.046
 20
50.8152
 30
0.0
 11
365.044
 21
50.8152
 31
0.0
  0
LINE
  8
0
 62
     0
 10
365.044
 20
50.8152
 30
0.0
 11
365.044
 21
64.8159
 31
0.0
  0
LINE
  8
0
 62
     0
 10
345.995
 20
64.8159
 30
0.0
 11
359.996
 21
64.8159
 31
0.0
  0
LINE
  8
0
 62
     0
 10
359.996
 20
64.8159
 30
0.0
 11
359.996
 21
50.8152
 31
0.0
  0
LINE
  8
0
 62
     0
 10
359.996
 20
50.8152
 30
0.0
 11
345.995
 21
50.8152
 31
0.0
  0
LINE
  8
0
 62
     0
 10
345.995
 20
50.8152
 30
0.0
 11
345.995
 21
64.8159
 31
0.0
  0
LINE
  8
0
 62
     0
 10
326.945
 20
64.8159
 30
0.0
 11
340.945
 21
64.8159
 31
0.0
  0
LINE
  8
0
 62
     0
 10
340.945
 20
64.8159
 30
0.0
 11
340.945
 21
50.8152
 31
0.0
  0
LINE
  8
0
 62
     0
 10
340.945
 20
50.8152
 30
0.0
 11
326.945
 21
50.8152
 31
0.0
  0
LINE
  8
0
 62
     0
 10
326.945
 20
50.8152
 30
0.0
 11
326.945
 21
64.8159
 31
0.0
  0
LINE
  8
0
 62
     0
 10
236.456
 20
64.8159
 30
0.0
 11
250.457
 21
64.8159
 31
0.0
  0
LINE
  8
0
 62
     0
 10
250.457
 20
64.8159
 30
0.0
 11
250.457
 21
50.8152
 31
0.0
  0
LINE
  8
0
 62
     0
 10
250.457
 20
50.8152
 30
0.0
 11
236.456
 21
50.8152
 31
0.0
  0
LINE
  8
0
 62
     0
 10
236.456
 20
50.8152
 30
0.0
 11
236.456
 21
64.8159
 31
0.0
  0
LINE
  8
0
 62
     0
 10
217.406
 20
64.8159
 30
0.0
 11
231.407
 21
64.8159
 31
0.0
  0
LINE
  8
0
 62
     0
 10
231.407
 20
64.8159
 30
0.0
 11
231.407
 21
50.8152
 31
0.0
  0
LINE
  8
0
 62
     0
 10
231.407
 20
50.8152
 30
0.0
 11
217.406
 21
50.8152
 31
0.0
  0
LINE
  8
0
 62
     0
 10
217.406
 20
50.8152
 30
0.0
 11
217.406
 21
64.8159
 31
0.0
  0
LINE
  8
0
 62
     0
 10
198.356
 20
64.8159
 30
0.0
 11
212.357
 21
64.8159
 31
0.0
  0
LINE
  8
0
 62
     0
 10
212.357
 20
64.8159
 30
0.0
 11
212.357
 21
50.8152
 31
0.0
  0
LINE
  8
0
 62
     0
 10
212.357
 20
50.8152
 30
0.0
 11
198.356
 21
50.8152
 31
0.0
  0
LINE
  8
0
 62
     0
 10
198.356
 20
50.8152
 30
0.0
 11
198.356
 21
64.8159
 31
0.0
  0
LINE
  8
0
 62
     0
 10
179.306
 20
64.8159
 30
0.0
 11
193.307
 21
64.8159
 31
0.0
  0
LINE
  8
0
 62
     0
 10
193.307
 20
64.8159
 30
0.0
 11
193.307
 21
50.8152
 31
0.0
  0
LINE
  8
0
 62
     0
 10
193.307
 20
50.8152
 30
0.0
 11
179.306
 21
50.8152
 31
0.0
  0
LINE
  8
0
 62
     0
 10
179.306
 20
50.8152
 30
0.0
 11
179.306
 21
64.8159
 31
0.0
  0
LINE
  8
0
 62
     0
 10
160.256
 20
64.8159
 30
0.0
 11
174.257
 21
64.8159
 31
0.0
  0
LINE
  8
0
 62
     0
 10
174.257
 20
64.8159
 30
0.0
 11
174.257
 21
50.8152
 31
0.0
  0
LINE
  8
0
 62
     0
 10
174.257
 20
50.8152
 30
0.0
 11
160.256
 21
50.8152
 31
0.0
  0
LINE
  8
0
 62
     0
 10
160.256
 20
50.8152
 30
0.0
 11
160.256
 21
64.8159
 31
0.0
  0
LINE
  8
0
 62
     0
 10
141.206
 20
64.8159
 30
0.0
 11
155.207
 21
64.8159
 31
0.0
  0
LINE
  8
0
 62
     0
 10
155.207
 20
64.8159
 30
0.0
 11
155.207
 21
50.8152
 31
0.0
  0
LINE
  8
0
 62
     0
 10
155.207
 20
50.8152
 30
0.0
 11
141.206
 21
50.8152
 31
0.0
  0
LINE
  8
0
 62
     0
 10
141.206
 20
50.8152
 30
0.0
 11
141.206
 21
64.8159
 31
0.0
  0
LINE
  8
0
 62
     0
 10
122.156
 20
64.8159
 30
0.0
 11
136.157
 21
64.8159
 31
0.0
  0
LINE
  8
0
 62
     0
 10
136.157
 20
64.8159
 30
0.0
 11
136.157
 21
50.8152
 31
0.0
  0
LINE
  8
0
 62
     0
 10
136.157
 20
50.8152
 30
0.0
 11
122.156
 21
50.8152
 31
0.0
  0
LINE
  8
0
 62
     0
 10
122.156
 20
50.8152
 30
0.0
 11
122.156
 21
64.8159
 31
0.0
  0
LINE
  8
0
 62
     0
 10
103.106
 20
64.8159
 30
0.0
 11
117.107
 21
64.8159
 31
0.0
  0
LINE
  8
0
 62
     0
 10
117.107
 20
64.8159
 30
0.0
 11
117.107
 21
50.8152
 31
0.0
  0
LINE
  8
0
 62
     0
 10
117.107
 20
50.8152
 30
0.0
 11
103.106
 21
50.8152
 31
0.0
  0
LINE
  8
0
 62
     0
 10
103.106
 20
50.8152
 30
0.0
 11
103.106
 21
64.8159
 31
0.0
  0
LINE
  8
0
 62
     0
 10
84.0564
 20
64.8159
 30
0.0
 11
98.0571
 21
64.8159
 31
0.0
  0
LINE
  8
0
 62
     0
 10
98.0571
 20
64.8159
 30
0.0
 11
98.0571
 21
50.8152
 31
0.0
  0
LINE
  8
0
 62
     0
 10
98.0571
 20
50.8152
 30
0.0
 11
84.0564
 21
50.8152
 31
0.0
  0
LINE
  8
0
 62
     0
 10
84.0564
 20
50.8152
 30
0.0
 11
84.0564
 21
64.8159
 31
0.0
  0
LINE
  8
0
 62
     0
 10
65.0064
 20
64.8159
 30
0.0
 11
79.0071
 21
64.8159
 31
0.0
  0
LINE
  8
0
 62
     0
 10
79.0071
 20
64.8159
 30
0.0
 11
79.0071
 21
50.8152
 31
0.0
  0
LINE
  8
0
 62
     0
 10
79.0071
 20
50.8152
 30
0.0
 11
65.0064
 21
50.8152
 31
0.0
  0
LINE
  8
0
 62
     0
 10
65.0064
 20
50.8152
 30
0.0
 11
65.0064
 21
64.8159
 31
0.0
  0
LINE
  8
0
 62
     0
 10
45.9564
 20
64.8159
 30
0.0
 11
59.9556
 21
64.8159
 31
0.0
  0
LINE
  8
0
 62
     0
 10
59.9556
 20
64.8159
 30
0.0
 11
59.9556
 21
50.8152
 31
0.0
  0
LINE
  8
0
 62
     0
 10
59.9556
 20
50.8152
 30
0.0
 11
45.9564
 21
50.8152
 31
0.0
  0
LINE
  8
0
 62
     0
 10
45.9564
 20
50.8152
 30
0.0
 11
45.9564
 21
64.8159
 31
0.0
  0
LINE
  8
0
 62
     0
 10
14.9999
 20
64.8159
 30
0.0
 11
33.7619
 21
64.8159
 31
0.0
  0
LINE
  8
0
 62
     0
 10
33.7619
 20
64.8159
 30
0.0
 11
33.7619
 21
50.8152
 31
0.0
  0
LINE
  8
0
 62
     0
 10
33.7619
 20
50.8152
 30
0.0
 11
14.9999
 21
50.8152
 31
0.0
  0
LINE
  8
0
 62
     0
 10
14.9999
 20
50.8152
 30
0.0
 11
14.9999
 21
64.8159
 31
0.0
  0
LINE
  8
0
 62
     0
 10
390.596
 20
83.4401
 30
0.0
 11
390.596
 21
82.6163
 31
0.0
  0
LINE
  8
0
 62
     0
 10
390.596
 20
82.6163
 30
0.0
 11
384.323
 21
82.6163
 31
0.0
  0
LINE
  8
0
 62
     0
 10
384.323
 20
82.6163
 30
0.0
 11
384.323
 21
80.8909
 31
0.0
  0
LINE
  8
0
 62
     0
 10
384.323
 20
80.8909
 30
0.0
 11
383.342
 21
80.8909
 31
0.0
  0
LINE
  8
0
 62
     0
 10
383.342
 20
80.8909
 30
0.0
 11
383.342
 21
77.5903
 31
0.0
  0
LINE
  8
0
 62
     0
 10
383.342
 20
77.5903
 30
0.0
 11
384.323
 21
77.5903
 31
0.0
  0
LINE
  8
0
 62
     0
 10
384.323
 20
77.5903
 30
0.0
 11
384.323
 21
75.8652
 31
0.0
  0
LINE
  8
0
 62
     0
 10
384.323
 20
75.8652
 30
0.0
 11
388.793
 21
75.8652
 31
0.0
  0
LINE
  8
0
 62
     0
 10
388.793
 20
75.8652
 30
0.0
 11
388.793
 21
74.3409
 31
0.0
  0
LINE
  8
0
 62
     0
 10
388.793
 20
74.3409
 30
0.0
 11
384.094
 21
74.3409
 31
0.0
  0
LINE
  8
0
 62
     0
 10
384.094
 20
74.3409
 30
0.0
 11
384.094
 21
60.3402
 31
0.0
  0
LINE
  8
0
 62
     0
 10
384.094
 20
60.3402
 30
0.0
 11
388.793
 21
60.3402
 31
0.0
  0
LINE
  8
0
 62
     0
 10
388.793
 20
60.3402
 30
0.0
 11
388.793
 21
58.8162
 31
0.0
  0
LINE
  8
0
 62
     0
 10
388.793
 20
58.8162
 30
0.0
 11
384.323
 21
58.8162
 31
0.0
  0
LINE
  8
0
 62
     0
 10
384.323
 20
58.8162
 30
0.0
 11
384.323
 21
57.0907
 31
0.0
  0
LINE
  8
0
 62
     0
 10
384.323
 20
57.0907
 30
0.0
 11
383.342
 21
57.0907
 31
0.0
  0
LINE
  8
0
 62
     0
 10
383.342
 20
57.0907
 30
0.0
 11
383.342
 21
53.7905
 31
0.0
  0
LINE
  8
0
 62
     0
 10
383.342
 20
53.7905
 30
0.0
 11
384.323
 21
53.7905
 31
0.0
  0
LINE
  8
0
 62
     0
 10
384.323
 20
53.7905
 30
0.0
 11
384.323
 21
52.0665
 31
0.0
  0
LINE
  8
0
 62
     0
 10
384.323
 20
52.0665
 30
0.0
 11
390.596
 21
52.0665
 31
0.0
  0
LINE
  8
0
 62
     0
 10
390.596
 20
52.0665
 30
0.0
 11
390.596
 21
51.241
 31
0.0
  0
LINE
  8
0
 62
     0
 10
390.596
 20
51.241
 30
0.0
 11
393.393
 21
51.241
 31
0.0
  0
LINE
  8
0
 62
     0
 10
393.393
 20
51.241
 30
0.0
 11
393.393
 21
52.0665
 31
0.0
  0
LINE
  8
0
 62
     0
 10
393.393
 20
52.0665
 30
0.0
 11
396.625
 21
52.0665
 31
0.0
  0
LINE
  8
0
 62
     0
 10
396.625
 20
52.0665
 30
0.0
 11
396.625
 21
53.7905
 31
0.0
  0
LINE
  8
0
 62
     0
 10
396.625
 20
53.7905
 30
0.0
 11
397.545
 21
53.7905
 31
0.0
  0
LINE
  8
0
 62
     0
 10
397.545
 20
53.7905
 30
0.0
 11
397.545
 21
57.0907
 31
0.0
  0
LINE
  8
0
 62
     0
 10
397.545
 20
57.0907
 30
0.0
 11
396.625
 21
57.0907
 31
0.0
  0
LINE
  8
0
 62
     0
 10
396.625
 20
57.0907
 30
0.0
 11
396.625
 21
58.8162
 31
0.0
  0
LINE
  8
0
 62
     0
 10
396.625
 20
58.8162
 30
0.0
 11
393.393
 21
58.8162
 31
0.0
  0
LINE
  8
0
 62
     0
 10
393.393
 20
58.8162
 30
0.0
 11
393.393
 21
60.3402
 31
0.0
  0
LINE
  8
0
 62
     0
 10
393.393
 20
60.3402
 30
0.0
 11
398.096
 21
60.3402
 31
0.0
  0
LINE
  8
0
 62
     0
 10
398.096
 20
60.3402
 30
0.0
 11
398.096
 21
74.3409
 31
0.0
  0
LINE
  8
0
 62
     0
 10
398.096
 20
74.3409
 30
0.0
 11
393.393
 21
74.3409
 31
0.0
  0
LINE
  8
0
 62
     0
 10
393.393
 20
74.3409
 30
0.0
 11
393.393
 21
75.8652
 31
0.0
  0
LINE
  8
0
 62
     0
 10
393.393
 20
75.8652
 30
0.0
 11
396.625
 21
75.8652
 31
0.0
  0
LINE
  8
0
 62
     0
 10
396.625
 20
75.8652
 30
0.0
 11
396.625
 21
77.5903
 31
0.0
  0
LINE
  8
0
 62
     0
 10
396.625
 20
77.5903
 30
0.0
 11
397.545
 21
77.5903
 31
0.0
  0
LINE
  8
0
 62
     0
 10
397.545
 20
77.5903
 30
0.0
 11
397.545
 21
80.8909
 31
0.0
  0
LINE
  8
0
 62
     0
 10
397.545
 20
80.8909
 30
0.0
 11
396.625
 21
80.8909
 31
0.0
  0
LINE
  8
0
 62
     0
 10
396.625
 20
80.8909
 30
0.0
 11
396.625
 21
82.6163
 31
0.0
  0
LINE
  8
0
 62
     0
 10
396.625
 20
82.6163
 30
0.0
 11
393.393
 21
82.6163
 31
0.0
  0
LINE
  8
0
 62
     0
 10
393.393
 20
82.6163
 30
0.0
 11
393.393
 21
83.4401
 31
0.0
  0
LINE
  8
0
 62
     0
 10
393.393
 20
83.4401
 30
0.0
 11
390.596
 21
83.4401
 31
0.0
  0
LINE
  8
0
 62
     0
 10
4.55306
 20
71.3853
 30
0.0
 11
4.0652
 21
71.1369
 31
0.0
  0
LINE
  8
0
 62
     0
 10
4.0652
 20
71.1369
 30
0.0
 11
3.67799
 21
70.7499
 31
0.0
  0
LINE
  8
0
 62
     0
 10
3.67799
 20
70.7499
 30
0.0
 11
3.42994
 21
70.2635
 31
0.0
  0
LINE
  8
0
 62
     0
 10
3.42994
 20
70.2635
 30
0.0
 11
3.3445
 21
69.7219
 31
0.0
  0
LINE
  8
0
 62
     0
 10
3.3445
 20
69.7219
 30
0.0
 11
3.42994
 21
69.1804
 31
0.0
  0
LINE
  8
0
 62
     0
 10
3.42994
 20
69.1804
 30
0.0
 11
3.67799
 21
68.6925
 31
0.0
  0
LINE
  8
0
 62
     0
 10
3.67799
 20
68.6925
 30
0.0
 11
4.0652
 21
68.3052
 31
0.0
  0
LINE
  8
0
 62
     0
 10
4.0652
 20
68.3052
 30
0.0
 11
4.55306
 21
68.0572
 31
0.0
  0
LINE
  8
0
 62
     0
 10
4.55306
 20
68.0572
 30
0.0
 11
5.0946
 21
67.9718
 31
0.0
  0
LINE
  8
0
 62
     0
 10
5.0946
 20
67.9718
 30
0.0
 11
5.63481
 21
68.0572
 31
0.0
  0
LINE
  8
0
 62
     0
 10
5.63481
 20
68.0572
 30
0.0
 11
6.12263
 21
68.3052
 31
0.0
  0
LINE
  8
0
 62
     0
 10
6.12263
 20
68.3052
 30
0.0
 11
6.50984
 21
68.6925
 31
0.0
  0
LINE
  8
0
 62
     0
 10
6.50984
 20
68.6925
 30
0.0
 11
6.75792
 21
69.1804
 31
0.0
  0
LINE
  8
0
 62
     0
 10
6.75792
 20
69.1804
 30
0.0
 11
6.8447
 21
69.7219
 31
0.0
  0
LINE
  8
0
 62
     0
 10
6.8447
 20
69.7219
 30
0.0
 11
6.75792
 21
70.2635
 31
0.0
  0
LINE
  8
0
 62
     0
 10
6.75792
 20
70.2635
 30
0.0
 11
6.50984
 21
70.7499
 31
0.0
  0
LINE
  8
0
 62
     0
 10
6.50984
 20
70.7499
 30
0.0
 11
6.12263
 21
71.1369
 31
0.0
  0
LINE
  8
0
 62
     0
 10
6.12263
 20
71.1369
 30
0.0
 11
5.63481
 21
71.3853
 31
0.0
  0
LINE
  8
0
 62
     0
 10
5.63481
 20
71.3853
 30
0.0
 11
5.0946
 21
71.4721
 31
0.0
  0
LINE
  8
0
 62
     0
 10
5.0946
 20
71.4721
 30
0.0
 11
4.55306
 21
71.3853
 31
0.0
  0
LINE
  8
0
 62
     0
 10
405.081
 20
71.3853
 30
0.0
 11
404.594
 21
71.1369
 31
0.0
  0
LINE
  8
0
 62
     0
 10
404.594
 20
71.1369
 30
0.0
 11
404.206
 21
70.7499
 31
0.0
  0
LINE
  8
0
 62
     0
 10
404.206
 20
70.7499
 30
0.0
 11
403.955
 21
70.2635
 31
0.0
  0
LINE
  8
0
 62
     0
 10
403.955
 20
70.2635
 30
0.0
 11
403.871
 21
69.7219
 31
0.0
  0
LINE
  8
0
 62
     0
 10
403.871
 20
69.7219
 30
0.0
 11
403.955
 21
69.1804
 31
0.0
  0
LINE
  8
0
 62
     0
 10
403.955
 20
69.1804
 30
0.0
 11
404.206
 21
68.6925
 31
0.0
  0
LINE
  8
0
 62
     0
 10
404.206
 20
68.6925
 30
0.0
 11
404.594
 21
68.3052
 31
0.0
  0
LINE
  8
0
 62
     0
 10
404.594
 20
68.3052
 30
0.0
 11
405.081
 21
68.0572
 31
0.0
  0
LINE
  8
0
 62
     0
 10
405.081
 20
68.0572
 30
0.0
 11
405.62
 21
67.9718
 31
0.0
  0
LINE
  8
0
 62
     0
 10
405.62
 20
67.9718
 30
0.0
 11
406.16
 21
68.0572
 31
0.0
  0
LINE
  8
0
 62
     0
 10
406.16
 20
68.0572
 30
0.0
 11
406.647
 21
68.3052
 31
0.0
  0
LINE
  8
0
 62
     0
 10
406.647
 20
68.3052
 30
0.0
 11
407.035
 21
68.6925
 31
0.0
  0
LINE
  8
0
 62
     0
 10
407.035
 20
68.6925
 30
0.0
 11
407.285
 21
69.1804
 31
0.0
  0
LINE
  8
0
 62
     0
 10
407.285
 20
69.1804
 30
0.0
 11
407.37
 21
69.7219
 31
0.0
  0
LINE
  8
0
 62
     0
 10
407.37
 20
69.7219
 30
0.0
 11
407.285
 21
70.2635
 31
0.0
  0
LINE
  8
0
 62
     0
 10
407.285
 20
70.2635
 30
0.0
 11
407.035
 21
70.7499
 31
0.0
  0
LINE
  8
0
 62
     0
 10
407.035
 20
70.7499
 30
0.0
 11
406.647
 21
71.1369
 31
0.0
  0
LINE
  8
0
 62
     0
 10
406.647
 20
71.1369
 30
0.0
 11
406.16
 21
71.3853
 31
0.0
  0
LINE
  8
0
 62
     0
 10
406.16
 20
71.3853
 30
0.0
 11
405.62
 21
71.4721
 31
0.0
  0
LINE
  8
0
 62
     0
 10
405.62
 20
71.4721
 30
0.0
 11
405.081
 21
71.3853
 31
0.0
  0
LINE
  8
0
 62
     0
 10
365.044
 20
83.8659
 30
0.0
 11
379.046
 21
83.8659
 31
0.0
  0
LINE
  8
0
 62
     0
 10
379.046
 20
83.8659
 30
0.0
 11
379.046
 21
69.8652
 31
0.0
  0
LINE
  8
0
 62
     0
 10
379.046
 20
69.8652
 30
0.0
 11
365.044
 21
69.8652
 31
0.0
  0
LINE
  8
0
 62
     0
 10
365.044
 20
69.8652
 30
0.0
 11
365.044
 21
83.8659
 31
0.0
  0
LINE
  8
0
 62
     0
 10
345.995
 20
83.8659
 30
0.0
 11
359.996
 21
83.8659
 31
0.0
  0
LINE
  8
0
 62
     0
 10
359.996
 20
83.8659
 30
0.0
 11
359.996
 21
69.8652
 31
0.0
  0
LINE
  8
0
 62
     0
 10
359.996
 20
69.8652
 30
0.0
 11
345.995
 21
69.8652
 31
0.0
  0
LINE
  8
0
 62
     0
 10
345.995
 20
69.8652
 30
0.0
 11
345.995
 21
83.8659
 31
0.0
  0
LINE
  8
0
 62
     0
 10
326.945
 20
83.8659
 30
0.0
 11
340.945
 21
83.8659
 31
0.0
  0
LINE
  8
0
 62
     0
 10
340.945
 20
83.8659
 30
0.0
 11
340.945
 21
69.8652
 31
0.0
  0
LINE
  8
0
 62
     0
 10
340.945
 20
69.8652
 30
0.0
 11
326.945
 21
69.8652
 31
0.0
  0
LINE
  8
0
 62
     0
 10
326.945
 20
69.8652
 30
0.0
 11
326.945
 21
83.8659
 31
0.0
  0
LINE
  8
0
 62
     0
 10
303.131
 20
83.8659
 30
0.0
 11
317.132
 21
83.8659
 31
0.0
  0
LINE
  8
0
 62
     0
 10
317.132
 20
83.8659
 30
0.0
 11
317.132
 21
69.8652
 31
0.0
  0
LINE
  8
0
 62
     0
 10
317.132
 20
69.8652
 30
0.0
 11
303.131
 21
69.8652
 31
0.0
  0
LINE
  8
0
 62
     0
 10
303.131
 20
69.8652
 30
0.0
 11
303.131
 21
83.8659
 31
0.0
  0
LINE
  8
0
 62
     0
 10
274.556
 20
83.8659
 30
0.0
 11
288.557
 21
83.8659
 31
0.0
  0
LINE
  8
0
 62
     0
 10
288.557
 20
83.8659
 30
0.0
 11
288.557
 21
69.8652
 31
0.0
  0
LINE
  8
0
 62
     0
 10
288.557
 20
69.8652
 30
0.0
 11
274.556
 21
69.8652
 31
0.0
  0
LINE
  8
0
 62
     0
 10
274.556
 20
69.8652
 30
0.0
 11
274.556
 21
83.8659
 31
0.0
  0
LINE
  8
0
 62
     0
 10
250.745
 20
83.8659
 30
0.0
 11
264.745
 21
83.8659
 31
0.0
  0
LINE
  8
0
 62
     0
 10
264.745
 20
83.8659
 30
0.0
 11
264.745
 21
69.8652
 31
0.0
  0
LINE
  8
0
 62
     0
 10
264.745
 20
69.8652
 30
0.0
 11
250.745
 21
69.8652
 31
0.0
  0
LINE
  8
0
 62
     0
 10
250.745
 20
69.8652
 30
0.0
 11
250.745
 21
83.8659
 31
0.0
  0
LINE
  8
0
 62
     0
 10
231.695
 20
83.8659
 30
0.0
 11
245.695
 21
83.8659
 31
0.0
  0
LINE
  8
0
 62
     0
 10
245.695
 20
83.8659
 30
0.0
 11
245.695
 21
69.8652
 31
0.0
  0
LINE
  8
0
 62
     0
 10
245.695
 20
69.8652
 30
0.0
 11
231.695
 21
69.8652
 31
0.0
  0
LINE
  8
0
 62
     0
 10
231.695
 20
69.8652
 30
0.0
 11
231.695
 21
83.8659
 31
0.0
  0
LINE
  8
0
 62
     0
 10
212.645
 20
83.8659
 30
0.0
 11
226.645
 21
83.8659
 31
0.0
  0
LINE
  8
0
 62
     0
 10
226.645
 20
83.8659
 30
0.0
 11
226.645
 21
69.8652
 31
0.0
  0
LINE
  8
0
 62
     0
 10
226.645
 20
69.8652
 30
0.0
 11
212.645
 21
69.8652
 31
0.0
  0
LINE
  8
0
 62
     0
 10
212.645
 20
69.8652
 30
0.0
 11
212.645
 21
83.8659
 31
0.0
  0
LINE
  8
0
 62
     0
 10
193.595
 20
83.8659
 30
0.0
 11
207.595
 21
83.8659
 31
0.0
  0
LINE
  8
0
 62
     0
 10
207.595
 20
83.8659
 30
0.0
 11
207.595
 21
69.8652
 31
0.0
  0
LINE
  8
0
 62
     0
 10
207.595
 20
69.8652
 30
0.0
 11
193.595
 21
69.8652
 31
0.0
  0
LINE
  8
0
 62
     0
 10
193.595
 20
69.8652
 30
0.0
 11
193.595
 21
83.8659
 31
0.0
  0
LINE
  8
0
 62
     0
 10
174.545
 20
83.8659
 30
0.0
 11
188.545
 21
83.8659
 31
0.0
  0
LINE
  8
0
 62
     0
 10
188.545
 20
83.8659
 30
0.0
 11
188.545
 21
69.8652
 31
0.0
  0
LINE
  8
0
 62
     0
 10
188.545
 20
69.8652
 30
0.0
 11
174.545
 21
69.8652
 31
0.0
  0
LINE
  8
0
 62
     0
 10
174.545
 20
69.8652
 30
0.0
 11
174.545
 21
83.8659
 31
0.0
  0
LINE
  8
0
 62
     0
 10
155.495
 20
83.8659
 30
0.0
 11
169.495
 21
83.8659
 31
0.0
  0
LINE
  8
0
 62
     0
 10
169.495
 20
83.8659
 30
0.0
 11
169.495
 21
69.8652
 31
0.0
  0
LINE
  8
0
 62
     0
 10
169.495
 20
69.8652
 30
0.0
 11
155.495
 21
69.8652
 31
0.0
  0
LINE
  8
0
 62
     0
 10
155.495
 20
69.8652
 30
0.0
 11
155.495
 21
83.8659
 31
0.0
  0
LINE
  8
0
 62
     0
 10
136.445
 20
83.8659
 30
0.0
 11
150.445
 21
83.8659
 31
0.0
  0
LINE
  8
0
 62
     0
 10
150.445
 20
83.8659
 30
0.0
 11
150.445
 21
69.8652
 31
0.0
  0
LINE
  8
0
 62
     0
 10
150.445
 20
69.8652
 30
0.0
 11
136.445
 21
69.8652
 31
0.0
  0
LINE
  8
0
 62
     0
 10
136.445
 20
69.8652
 30
0.0
 11
136.445
 21
83.8659
 31
0.0
  0
LINE
  8
0
 62
     0
 10
117.395
 20
83.8659
 30
0.0
 11
131.395
 21
83.8659
 31
0.0
  0
LINE
  8
0
 62
     0
 10
131.395
 20
83.8659
 30
0.0
 11
131.395
 21
69.8652
 31
0.0
  0
LINE
  8
0
 62
     0
 10
131.395
 20
69.8652
 30
0.0
 11
117.395
 21
69.8652
 31
0.0
  0
LINE
  8
0
 62
     0
 10
117.395
 20
69.8652
 30
0.0
 11
117.395
 21
83.8659
 31
0.0
  0
LINE
  8
0
 62
     0
 10
98.3449
 20
83.8659
 30
0.0
 11
112.345
 21
83.8659
 31
0.0
  0
LINE
  8
0
 62
     0
 10
112.345
 20
83.8659
 30
0.0
 11
112.345
 21
69.8652
 31
0.0
  0
LINE
  8
0
 62
     0
 10
112.345
 20
69.8652
 30
0.0
 11
98.3449
 21
69.8652
 31
0.0
  0
LINE
  8
0
 62
     0
 10
98.3449
 20
69.8652
 30
0.0
 11
98.3449
 21
83.8659
 31
0.0
  0
LINE
  8
0
 62
     0
 10
79.2949
 20
83.8659
 30
0.0
 11
93.2946
 21
83.8659
 31
0.0
  0
LINE
  8
0
 62
     0
 10
93.2946
 20
83.8659
 30
0.0
 11
93.2946
 21
69.8652
 31
0.0
  0
LINE
  8
0
 62
     0
 10
93.2946
 20
69.8652
 30
0.0
 11
79.2949
 21
69.8652
 31
0.0
  0
LINE
  8
0
 62
     0
 10
79.2949
 20
69.8652
 30
0.0
 11
79.2949
 21
83.8659
 31
0.0
  0
LINE
  8
0
 62
     0
 10
60.2449
 20
83.8659
 30
0.0
 11
74.2446
 21
83.8659
 31
0.0
  0
LINE
  8
0
 62
     0
 10
74.2446
 20
83.8659
 30
0.0
 11
74.2446
 21
69.8652
 31
0.0
  0
LINE
  8
0
 62
     0
 10
74.2446
 20
69.8652
 30
0.0
 11
60.2449
 21
69.8652
 31
0.0
  0
LINE
  8
0
 62
     0
 10
60.2449
 20
69.8652
 30
0.0
 11
60.2449
 21
83.8659
 31
0.0
  0
LINE
  8
0
 62
     0
 10
41.1949
 20
83.8659
 30
0.0
 11
55.1946
 21
83.8659
 31
0.0
  0
LINE
  8
0
 62
     0
 10
55.1946
 20
83.8659
 30
0.0
 11
55.1946
 21
69.8652
 31
0.0
  0
LINE
  8
0
 62
     0
 10
55.1946
 20
69.8652
 30
0.0
 11
41.1949
 21
69.8652
 31
0.0
  0
LINE
  8
0
 62
     0
 10
41.1949
 20
69.8652
 30
0.0
 11
41.1949
 21
83.8659
 31
0.0
  0
LINE
  8
0
 62
     0
 10
17.3812
 20
83.8659
 30
0.0
 11
31.3821
 21
83.8659
 31
0.0
  0
LINE
  8
0
 62
     0
 10
31.3821
 20
83.8659
 30
0.0
 11
31.3821
 21
69.8652
 31
0.0
  0
LINE
  8
0
 62
     0
 10
31.3821
 20
69.8652
 30
0.0
 11
17.3812
 21
69.8652
 31
0.0
  0
LINE
  8
0
 62
     0
 10
17.3812
 20
69.8652
 30
0.0
 11
17.3812
 21
83.8659
 31
0.0
  0
LINE
  8
0
 62
     0
 10
269.795
 20
102.916
 30
0.0
 11
269.795
 21
98.2155
 31
0.0
  0
LINE
  8
0
 62
     0
 10
269.795
 20
98.2155
 30
0.0
 11
268.27
 21
98.2155
 31
0.0
  0
LINE
  8
0
 62
     0
 10
268.27
 20
98.2155
 30
0.0
 11
268.27
 21
101.446
 31
0.0
  0
LINE
  8
0
 62
     0
 10
268.27
 20
101.446
 30
0.0
 11
266.544
 21
101.446
 31
0.0
  0
LINE
  8
0
 62
     0
 10
266.544
 20
101.446
 30
0.0
 11
266.544
 21
102.366
 31
0.0
  0
LINE
  8
0
 62
     0
 10
266.544
 20
102.366
 30
0.0
 11
263.244
 21
102.366
 31
0.0
  0
LINE
  8
0
 62
     0
 10
263.244
 20
102.366
 30
0.0
 11
263.244
 21
101.446
 31
0.0
  0
LINE
  8
0
 62
     0
 10
263.244
 20
101.446
 30
0.0
 11
261.52
 21
101.446
 31
0.0
  0
LINE
  8
0
 62
     0
 10
261.52
 20
101.446
 30
0.0
 11
261.52
 21
98.2155
 31
0.0
  0
LINE
  8
0
 62
     0
 10
261.52
 20
98.2155
 30
0.0
 11
260.695
 21
98.2155
 31
0.0
  0
LINE
  8
0
 62
     0
 10
260.695
 20
98.2155
 30
0.0
 11
260.695
 21
95.4155
 31
0.0
  0
LINE
  8
0
 62
     0
 10
260.695
 20
95.4155
 30
0.0
 11
261.52
 21
95.4155
 31
0.0
  0
LINE
  8
0
 62
     0
 10
261.52
 20
95.4155
 30
0.0
 11
261.52
 21
89.1452
 31
0.0
  0
LINE
  8
0
 62
     0
 10
261.52
 20
89.1452
 30
0.0
 11
263.244
 21
89.1452
 31
0.0
  0
LINE
  8
0
 62
     0
 10
263.244
 20
89.1452
 30
0.0
 11
263.244
 21
88.1655
 31
0.0
  0
LINE
  8
0
 62
     0
 10
263.244
 20
88.1655
 30
0.0
 11
266.544
 21
88.1655
 31
0.0
  0
LINE
  8
0
 62
     0
 10
266.544
 20
88.1655
 30
0.0
 11
266.544
 21
89.1452
 31
0.0
  0
LINE
  8
0
 62
     0
 10
266.544
 20
89.1452
 30
0.0
 11
268.27
 21
89.1452
 31
0.0
  0
LINE
  8
0
 62
     0
 10
268.27
 20
89.1452
 30
0.0
 11
268.27
 21
93.6156
 31
0.0
  0
LINE
  8
0
 62
     0
 10
268.27
 20
93.6156
 30
0.0
 11
269.795
 21
93.6156
 31
0.0
  0
LINE
  8
0
 62
     0
 10
269.795
 20
93.6156
 30
0.0
 11
269.795
 21
88.9152
 31
0.0
  0
LINE
  8
0
 62
     0
 10
269.795
 20
88.9152
 30
0.0
 11
283.795
 21
88.9152
 31
0.0
  0
LINE
  8
0
 62
     0
 10
283.795
 20
88.9152
 30
0.0
 11
283.795
 21
93.6156
 31
0.0
  0
LINE
  8
0
 62
     0
 10
283.795
 20
93.6156
 30
0.0
 11
285.32
 21
93.6156
 31
0.0
  0
LINE
  8
0
 62
     0
 10
285.32
 20
93.6156
 30
0.0
 11
285.32
 21
89.1452
 31
0.0
  0
LINE
  8
0
 62
     0
 10
285.32
 20
89.1452
 30
0.0
 11
287.044
 21
89.1452
 31
0.0
  0
LINE
  8
0
 62
     0
 10
287.044
 20
89.1452
 30
0.0
 11
287.044
 21
88.1655
 31
0.0
  0
LINE
  8
0
 62
     0
 10
287.044
 20
88.1655
 30
0.0
 11
290.344
 21
88.1655
 31
0.0
  0
LINE
  8
0
 62
     0
 10
290.344
 20
88.1655
 30
0.0
 11
290.344
 21
89.1452
 31
0.0
  0
LINE
  8
0
 62
     0
 10
290.344
 20
89.1452
 30
0.0
 11
292.07
 21
89.1452
 31
0.0
  0
LINE
  8
0
 62
     0
 10
292.07
 20
89.1452
 30
0.0
 11
292.07
 21
95.4155
 31
0.0
  0
LINE
  8
0
 62
     0
 10
292.07
 20
95.4155
 30
0.0
 11
292.895
 21
95.4155
 31
0.0
  0
LINE
  8
0
 62
     0
 10
292.895
 20
95.4155
 30
0.0
 11
292.895
 21
98.2155
 31
0.0
  0
LINE
  8
0
 62
     0
 10
292.895
 20
98.2155
 30
0.0
 11
292.07
 21
98.2155
 31
0.0
  0
LINE
  8
0
 62
     0
 10
292.07
 20
98.2155
 30
0.0
 11
292.07
 21
101.446
 31
0.0
  0
LINE
  8
0
 62
     0
 10
292.07
 20
101.446
 30
0.0
 11
290.344
 21
101.446
 31
0.0
  0
LINE
  8
0
 62
     0
 10
290.344
 20
101.446
 30
0.0
 11
290.344
 21
102.366
 31
0.0
  0
LINE
  8
0
 62
     0
 10
290.344
 20
102.366
 30
0.0
 11
287.044
 21
102.366
 31
0.0
  0
LINE
  8
0
 62
     0
 10
287.044
 20
102.366
 30
0.0
 11
287.044
 21
101.446
 31
0.0
  0
LINE
  8
0
 62
     0
 10
287.044
 20
101.446
 30
0.0
 11
285.32
 21
101.446
 31
0.0
  0
LINE
  8
0
 62
     0
 10
285.32
 20
101.446
 30
0.0
 11
285.32
 21
98.2155
 31
0.0
  0
LINE
  8
0
 62
     0
 10
285.32
 20
98.2155
 30
0.0
 11
283.795
 21
98.2155
 31
0.0
  0
LINE
  8
0
 62
     0
 10
283.795
 20
98.2155
 30
0.0
 11
283.795
 21
102.916
 31
0.0
  0
LINE
  8
0
 62
     0
 10
283.795
 20
102.916
 30
0.0
 11
269.795
 21
102.916
 31
0.0
  0
LINE
  8
0
 62
     0
 10
384.094
 20
102.916
 30
0.0
 11
398.096
 21
102.916
 31
0.0
  0
LINE
  8
0
 62
     0
 10
398.096
 20
102.916
 30
0.0
 11
398.096
 21
88.9152
 31
0.0
  0
LINE
  8
0
 62
     0
 10
398.096
 20
88.9152
 30
0.0
 11
384.094
 21
88.9152
 31
0.0
  0
LINE
  8
0
 62
     0
 10
384.094
 20
88.9152
 30
0.0
 11
384.094
 21
102.916
 31
0.0
  0
LINE
  8
0
 62
     0
 10
365.044
 20
102.916
 30
0.0
 11
379.046
 21
102.916
 31
0.0
  0
LINE
  8
0
 62
     0
 10
379.046
 20
102.916
 30
0.0
 11
379.046
 21
88.9152
 31
0.0
  0
LINE
  8
0
 62
     0
 10
379.046
 20
88.9152
 30
0.0
 11
365.044
 21
88.9152
 31
0.0
  0
LINE
  8
0
 62
     0
 10
365.044
 20
88.9152
 30
0.0
 11
365.044
 21
102.916
 31
0.0
  0
LINE
  8
0
 62
     0
 10
345.995
 20
102.916
 30
0.0
 11
359.996
 21
102.916
 31
0.0
  0
LINE
  8
0
 62
     0
 10
359.996
 20
102.916
 30
0.0
 11
359.996
 21
88.9152
 31
0.0
  0
LINE
  8
0
 62
     0
 10
359.996
 20
88.9152
 30
0.0
 11
345.995
 21
88.9152
 31
0.0
  0
LINE
  8
0
 62
     0
 10
345.995
 20
88.9152
 30
0.0
 11
345.995
 21
102.916
 31
0.0
  0
LINE
  8
0
 62
     0
 10
326.945
 20
102.916
 30
0.0
 11
340.945
 21
102.916
 31
0.0
  0
LINE
  8
0
 62
     0
 10
340.945
 20
102.916
 30
0.0
 11
340.945
 21
88.9152
 31
0.0
  0
LINE
  8
0
 62
     0
 10
340.945
 20
88.9152
 30
0.0
 11
326.945
 21
88.9152
 31
0.0
  0
LINE
  8
0
 62
     0
 10
326.945
 20
88.9152
 30
0.0
 11
326.945
 21
102.916
 31
0.0
  0
LINE
  8
0
 62
     0
 10
303.131
 20
102.916
 30
0.0
 11
317.132
 21
102.916
 31
0.0
  0
LINE
  8
0
 62
     0
 10
317.132
 20
102.916
 30
0.0
 11
317.132
 21
88.9152
 31
0.0
  0
LINE
  8
0
 62
     0
 10
317.132
 20
88.9152
 30
0.0
 11
303.131
 21
88.9152
 31
0.0
  0
LINE
  8
0
 62
     0
 10
303.131
 20
88.9152
 30
0.0
 11
303.131
 21
102.916
 31
0.0
  0
LINE
  8
0
 62
     0
 10
241.22
 20
102.916
 30
0.0
 11
255.22
 21
102.916
 31
0.0
  0
LINE
  8
0
 62
     0
 10
255.22
 20
102.916
 30
0.0
 11
255.22
 21
88.9152
 31
0.0
  0
LINE
  8
0
 62
     0
 10
255.22
 20
88.9152
 30
0.0
 11
241.22
 21
88.9152
 31
0.0
  0
LINE
  8
0
 62
     0
 10
241.22
 20
88.9152
 30
0.0
 11
241.22
 21
102.916
 31
0.0
  0
LINE
  8
0
 62
     0
 10
222.17
 20
102.916
 30
0.0
 11
236.17
 21
102.916
 31
0.0
  0
LINE
  8
0
 62
     0
 10
236.17
 20
102.916
 30
0.0
 11
236.17
 21
88.9152
 31
0.0
  0
LINE
  8
0
 62
     0
 10
236.17
 20
88.9152
 30
0.0
 11
222.17
 21
88.9152
 31
0.0
  0
LINE
  8
0
 62
     0
 10
222.17
 20
88.9152
 30
0.0
 11
222.17
 21
102.916
 31
0.0
  0
LINE
  8
0
 62
     0
 10
203.12
 20
102.916
 30
0.0
 11
217.12
 21
102.916
 31
0.0
  0
LINE
  8
0
 62
     0
 10
217.12
 20
102.916
 30
0.0
 11
217.12
 21
88.9152
 31
0.0
  0
LINE
  8
0
 62
     0
 10
217.12
 20
88.9152
 30
0.0
 11
203.12
 21
88.9152
 31
0.0
  0
LINE
  8
0
 62
     0
 10
203.12
 20
88.9152
 30
0.0
 11
203.12
 21
102.916
 31
0.0
  0
LINE
  8
0
 62
     0
 10
184.07
 20
102.916
 30
0.0
 11
198.07
 21
102.916
 31
0.0
  0
LINE
  8
0
 62
     0
 10
198.07
 20
102.916
 30
0.0
 11
198.07
 21
88.9152
 31
0.0
  0
LINE
  8
0
 62
     0
 10
198.07
 20
88.9152
 30
0.0
 11
184.07
 21
88.9152
 31
0.0
  0
LINE
  8
0
 62
     0
 10
184.07
 20
88.9152
 30
0.0
 11
184.07
 21
102.916
 31
0.0
  0
LINE
  8
0
 62
     0
 10
165.02
 20
102.916
 30
0.0
 11
179.02
 21
102.916
 31
0.0
  0
LINE
  8
0
 62
     0
 10
179.02
 20
102.916
 30
0.0
 11
179.02
 21
88.9152
 31
0.0
  0
LINE
  8
0
 62
     0
 10
179.02
 20
88.9152
 30
0.0
 11
165.02
 21
88.9152
 31
0.0
  0
LINE
  8
0
 62
     0
 10
165.02
 20
88.9152
 30
0.0
 11
165.02
 21
102.916
 31
0.0
  0
LINE
  8
0
 62
     0
 10
145.97
 20
102.916
 30
0.0
 11
159.97
 21
102.916
 31
0.0
  0
LINE
  8
0
 62
     0
 10
159.97
 20
102.916
 30
0.0
 11
159.97
 21
88.9152
 31
0.0
  0
LINE
  8
0
 62
     0
 10
159.97
 20
88.9152
 30
0.0
 11
145.97
 21
88.9152
 31
0.0
  0
LINE
  8
0
 62
     0
 10
145.97
 20
88.9152
 30
0.0
 11
145.97
 21
102.916
 31
0.0
  0
LINE
  8
0
 62
     0
 10
126.92
 20
102.916
 30
0.0
 11
140.92
 21
102.916
 31
0.0
  0
LINE
  8
0
 62
     0
 10
140.92
 20
102.916
 30
0.0
 11
140.92
 21
88.9152
 31
0.0
  0
LINE
  8
0
 62
     0
 10
140.92
 20
88.9152
 30
0.0
 11
126.92
 21
88.9152
 31
0.0
  0
LINE
  8
0
 62
     0
 10
126.92
 20
88.9152
 30
0.0
 11
126.92
 21
102.916
 31
0.0
  0
LINE
  8
0
 62
     0
 10
107.869
 20
102.916
 30
0.0
 11
121.868
 21
102.916
 31
0.0
  0
LINE
  8
0
 62
     0
 10
121.868
 20
102.916
 30
0.0
 11
121.868
 21
88.9152
 31
0.0
  0
LINE
  8
0
 62
     0
 10
121.868
 20
88.9152
 30
0.0
 11
107.869
 21
88.9152
 31
0.0
  0
LINE
  8
0
 62
     0
 10
107.869
 20
88.9152
 30
0.0
 11
107.869
 21
102.916
 31
0.0
  0
LINE
  8
0
 62
     0
 10
88.8199
 20
102.916
 30
0.0
 11
102.82
 21
102.916
 31
0.0
  0
LINE
  8
0
 62
     0
 10
102.82
 20
102.916
 30
0.0
 11
102.82
 21
88.9152
 31
0.0
  0
LINE
  8
0
 62
     0
 10
102.82
 20
88.9152
 30
0.0
 11
88.8199
 21
88.9152
 31
0.0
  0
LINE
  8
0
 62
     0
 10
88.8199
 20
88.9152
 30
0.0
 11
88.8199
 21
102.916
 31
0.0
  0
LINE
  8
0
 62
     0
 10
69.7699
 20
102.916
 30
0.0
 11
83.7696
 21
102.916
 31
0.0
  0
LINE
  8
0
 62
     0
 10
83.7696
 20
102.916
 30
0.0
 11
83.7696
 21
88.9152
 31
0.0
  0
LINE
  8
0
 62
     0
 10
83.7696
 20
88.9152
 30
0.0
 11
69.7699
 21
88.9152
 31
0.0
  0
LINE
  8
0
 62
     0
 10
69.7699
 20
88.9152
 30
0.0
 11
69.7699
 21
102.916
 31
0.0
  0
LINE
  8
0
 62
     0
 10
50.7199
 20
102.916
 30
0.0
 11
64.7196
 21
102.916
 31
0.0
  0
LINE
  8
0
 62
     0
 10
64.7196
 20
102.916
 30
0.0
 11
64.7196
 21
88.9152
 31
0.0
  0
LINE
  8
0
 62
     0
 10
64.7196
 20
88.9152
 30
0.0
 11
50.7199
 21
88.9152
 31
0.0
  0
LINE
  8
0
 62
     0
 10
50.7199
 20
88.9152
 30
0.0
 11
50.7199
 21
102.916
 31
0.0
  0
LINE
  8
0
 62
     0
 10
31.6701
 20
102.916
 30
0.0
 11
45.6696
 21
102.916
 31
0.0
  0
LINE
  8
0
 62
     0
 10
45.6696
 20
102.916
 30
0.0
 11
45.6696
 21
88.9152
 31
0.0
  0
LINE
  8
0
 62
     0
 10
45.6696
 20
88.9152
 30
0.0
 11
31.6701
 21
88.9152
 31
0.0
  0
LINE
  8
0
 62
     0
 10
31.6701
 20
88.9152
 30
0.0
 11
31.6701
 21
102.916
 31
0.0
  0
LINE
  8
0
 62
     0
 10
12.6201
 20
102.916
 30
0.0
 11
26.6196
 21
102.916
 31
0.0
  0
LINE
  8
0
 62
     0
 10
26.6196
 20
102.916
 30
0.0
 11
26.6196
 21
88.9152
 31
0.0
  0
LINE
  8
0
 62
     0
 10
26.6196
 20
88.9152
 30
0.0
 11
12.6201
 21
88.9152
 31
0.0
  0
LINE
  8
0
 62
     0
 10
12.6201
 20
88.9152
 30
0.0
 11
12.6201
 21
102.916
 31
0.0
  0
LINE
  8
0
 62
     0
 10
384.094
 20
126.727
 30
0.0
 11
398.096
 21
126.727
 31
0.0
  0
LINE
  8
0
 62
     0
 10
398.096
 20
126.727
 30
0.0
 11
398.096
 21
112.728
 31
0.0
  0
LINE
  8
0
 62
     0
 10
398.096
 20
112.728
 30
0.0
 11
384.094
 21
112.728
 31
0.0
  0
LINE
  8
0
 62
     0
 10
384.094
 20
112.728
 30
0.0
 11
384.094
 21
126.727
 31
0.0
  0
LINE
  8
0
 62
     0
 10
365.044
 20
126.727
 30
0.0
 11
379.046
 21
126.727
 31
0.0
  0
LINE
  8
0
 62
     0
 10
379.046
 20
126.727
 30
0.0
 11
379.046
 21
112.728
 31
0.0
  0
LINE
  8
0
 62
     0
 10
379.046
 20
112.728
 30
0.0
 11
365.044
 21
112.728
 31
0.0
  0
LINE
  8
0
 62
     0
 10
365.044
 20
112.728
 30
0.0
 11
365.044
 21
126.727
 31
0.0
  0
LINE
  8
0
 62
     0
 10
345.995
 20
126.727
 30
0.0
 11
359.996
 21
126.727
 31
0.0
  0
LINE
  8
0
 62
     0
 10
359.996
 20
126.727
 30
0.0
 11
359.996
 21
112.728
 31
0.0
  0
LINE
  8
0
 62
     0
 10
359.996
 20
112.728
 30
0.0
 11
345.995
 21
112.728
 31
0.0
  0
LINE
  8
0
 62
     0
 10
345.995
 20
112.728
 30
0.0
 11
345.995
 21
126.727
 31
0.0
  0
LINE
  8
0
 62
     0
 10
326.945
 20
126.727
 30
0.0
 11
340.945
 21
126.727
 31
0.0
  0
LINE
  8
0
 62
     0
 10
340.945
 20
126.727
 30
0.0
 11
340.945
 21
112.728
 31
0.0
  0
LINE
  8
0
 62
     0
 10
340.945
 20
112.728
 30
0.0
 11
326.945
 21
112.728
 31
0.0
  0
LINE
  8
0
 62
     0
 10
326.945
 20
112.728
 30
0.0
 11
326.945
 21
126.727
 31
0.0
  0
LINE
  8
0
 62
     0
 10
303.131
 20
126.727
 30
0.0
 11
317.132
 21
126.727
 31
0.0
  0
LINE
  8
0
 62
     0
 10
317.132
 20
126.727
 30
0.0
 11
317.132
 21
112.728
 31
0.0
  0
LINE
  8
0
 62
     0
 10
317.132
 20
112.728
 30
0.0
 11
303.131
 21
112.728
 31
0.0
  0
LINE
  8
0
 62
     0
 10
303.131
 20
112.728
 30
0.0
 11
303.131
 21
126.727
 31
0.0
  0
LINE
  8
0
 62
     0
 10
279.32
 20
126.727
 30
0.0
 11
293.32
 21
126.727
 31
0.0
  0
LINE
  8
0
 62
     0
 10
293.32
 20
126.727
 30
0.0
 11
293.32
 21
112.728
 31
0.0
  0
LINE
  8
0
 62
     0
 10
293.32
 20
112.728
 30
0.0
 11
279.32
 21
112.728
 31
0.0
  0
LINE
  8
0
 62
     0
 10
279.32
 20
112.728
 30
0.0
 11
279.32
 21
126.727
 31
0.0
  0
LINE
  8
0
 62
     0
 10
260.27
 20
126.727
 30
0.0
 11
274.27
 21
126.727
 31
0.0
  0
LINE
  8
0
 62
     0
 10
274.27
 20
126.727
 30
0.0
 11
274.27
 21
112.728
 31
0.0
  0
LINE
  8
0
 62
     0
 10
274.27
 20
112.728
 30
0.0
 11
260.27
 21
112.728
 31
0.0
  0
LINE
  8
0
 62
     0
 10
260.27
 20
112.728
 30
0.0
 11
260.27
 21
126.727
 31
0.0
  0
LINE
  8
0
 62
     0
 10
241.22
 20
126.727
 30
0.0
 11
255.22
 21
126.727
 31
0.0
  0
LINE
  8
0
 62
     0
 10
255.22
 20
126.727
 30
0.0
 11
255.22
 21
112.728
 31
0.0
  0
LINE
  8
0
 62
     0
 10
255.22
 20
112.728
 30
0.0
 11
241.22
 21
112.728
 31
0.0
  0
LINE
  8
0
 62
     0
 10
241.22
 20
112.728
 30
0.0
 11
241.22
 21
126.727
 31
0.0
  0
LINE
  8
0
 62
     0
 10
222.17
 20
126.727
 30
0.0
 11
236.17
 21
126.727
 31
0.0
  0
LINE
  8
0
 62
     0
 10
236.17
 20
126.727
 30
0.0
 11
236.17
 21
112.728
 31
0.0
  0
LINE
  8
0
 62
     0
 10
236.17
 20
112.728
 30
0.0
 11
222.17
 21
112.728
 31
0.0
  0
LINE
  8
0
 62
     0
 10
222.17
 20
112.728
 30
0.0
 11
222.17
 21
126.727
 31
0.0
  0
LINE
  8
0
 62
     0
 10
203.12
 20
126.727
 30
0.0
 11
217.12
 21
126.727
 31
0.0
  0
LINE
  8
0
 62
     0
 10
217.12
 20
126.727
 30
0.0
 11
217.12
 21
112.728
 31
0.0
  0
LINE
  8
0
 62
     0
 10
217.12
 20
112.728
 30
0.0
 11
203.12
 21
112.728
 31
0.0
  0
LINE
  8
0
 62
     0
 10
203.12
 20
112.728
 30
0.0
 11
203.12
 21
126.727
 31
0.0
  0
LINE
  8
0
 62
     0
 10
184.07
 20
126.727
 30
0.0
 11
198.07
 21
126.727
 31
0.0
  0
LINE
  8
0
 62
     0
 10
198.07
 20
126.727
 30
0.0
 11
198.07
 21
112.728
 31
0.0
  0
LINE
  8
0
 62
     0
 10
198.07
 20
112.728
 30
0.0
 11
184.07
 21
112.728
 31
0.0
  0
LINE
  8
0
 62
     0
 10
184.07
 20
112.728
 30
0.0
 11
184.07
 21
126.727
 31
0.0
  0
LINE
  8
0
 62
     0
 10
165.02
 20
126.727
 30
0.0
 11
179.02
 21
126.727
 31
0.0
  0
LINE
  8
0
 62
     0
 10
179.02
 20
126.727
 30
0.0
 11
179.02
 21
112.728
 31
0.0
  0
LINE
  8
0
 62
     0
 10
179.02
 20
112.728
 30
0.0
 11
165.02
 21
112.728
 31
0.0
  0
LINE
  8
0
 62
     0
 10
165.02
 20
112.728
 30
0.0
 11
165.02
 21
126.727
 31
0.0
  0
LINE
  8
0
 62
     0
 10
145.97
 20
126.727
 30
0.0
 11
159.97
 21
126.727
 31
0.0
  0
LINE
  8
0
 62
     0
 10
159.97
 20
126.727
 30
0.0
 11
159.97
 21
112.728
 31
0.0
  0
LINE
  8
0
 62
     0
 10
159.97
 20
112.728
 30
0.0
 11
145.97
 21
112.728
 31
0.0
  0
LINE
  8
0
 62
     0
 10
145.97
 20
112.728
 30
0.0
 11
145.97
 21
126.727
 31
0.0
  0
LINE
  8
0
 62
     0
 10
126.92
 20
126.727
 30
0.0
 11
140.92
 21
126.727
 31
0.0
  0
LINE
  8
0
 62
     0
 10
140.92
 20
126.727
 30
0.0
 11
140.92
 21
112.728
 31
0.0
  0
LINE
  8
0
 62
     0
 10
140.92
 20
112.728
 30
0.0
 11
126.92
 21
112.728
 31
0.0
  0
LINE
  8
0
 62
     0
 10
126.92
 20
112.728
 30
0.0
 11
126.92
 21
126.727
 31
0.0
  0
LINE
  8
0
 62
     0
 10
107.869
 20
126.727
 30
0.0
 11
121.868
 21
126.727
 31
0.0
  0
LINE
  8
0
 62
     0
 10
121.868
 20
126.727
 30
0.0
 11
121.868
 21
112.728
 31
0.0
  0
LINE
  8
0
 62
     0
 10
121.868
 20
112.728
 30
0.0
 11
107.869
 21
112.728
 31
0.0
  0
LINE
  8
0
 62
     0
 10
107.869
 20
112.728
 30
0.0
 11
107.869
 21
126.727
 31
0.0
  0
LINE
  8
0
 62
     0
 10
88.8199
 20
126.727
 30
0.0
 11
102.82
 21
126.727
 31
0.0
  0
LINE
  8
0
 62
     0
 10
102.82
 20
126.727
 30
0.0
 11
102.82
 21
112.728
 31
0.0
  0
LINE
  8
0
 62
     0
 10
102.82
 20
112.728
 30
0.0
 11
88.8199
 21
112.728
 31
0.0
  0
LINE
  8
0
 62
     0
 10
88.8199
 20
112.728
 30
0.0
 11
88.8199
 21
126.727
 31
0.0
  0
LINE
  8
0
 62
     0
 10
69.7699
 20
126.727
 30
0.0
 11
83.7696
 21
126.727
 31
0.0
  0
LINE
  8
0
 62
     0
 10
83.7696
 20
126.727
 30
0.0
 11
83.7696
 21
112.728
 31
0.0
  0
LINE
  8
0
 62
     0
 10
83.7696
 20
112.728
 30
0.0
 11
69.7699
 21
112.728
 31
0.0
  0
LINE
  8
0
 62
     0
 10
69.7699
 20
112.728
 30
0.0
 11
69.7699
 21
126.727
 31
0.0
  0
LINE
  8
0
 62
     0
 10
50.7199
 20
126.727
 30
0.0
 11
64.7196
 21
126.727
 31
0.0
  0
LINE
  8
0
 62
     0
 10
64.7196
 20
126.727
 30
0.0
 11
64.7196
 21
112.728
 31
0.0
  0
LINE
  8
0
 62
     0
 10
64.7196
 20
112.728
 30
0.0
 11
50.7199
 21
112.728
 31
0.0
  0
LINE
  8
0
 62
     0
 10
50.7199
 20
112.728
 30
0.0
 11
50.7199
 21
126.727
 31
0.0
  0
LINE
  8
0
 62
     0
 10
31.6701
 20
126.727
 30
0.0
 11
45.6696
 21
126.727
 31
0.0
  0
LINE
  8
0
 62
     0
 10
45.6696
 20
126.727
 30
0.0
 11
45.6696
 21
112.728
 31
0.0
  0
LINE
  8
0
 62
     0
 10
45.6696
 20
112.728
 30
0.0
 11
31.6701
 21
112.728
 31
0.0
  0
LINE
  8
0
 62
     0
 10
31.6701
 20
112.728
 30
0.0
 11
31.6701
 21
126.727
 31
0.0
  0
LINE
  8
0
 62
     0
 10
12.6201
 20
126.727
 30
0.0
 11
26.6196
 21
126.727
 31
0.0
  0
LINE
  8
0
 62
     0
 10
26.6196
 20
126.727
 30
0.0
 11
26.6196
 21
112.728
 31
0.0
  0
LINE
  8
0
 62
     0
 10
26.6196
 20
112.728
 30
0.0
 11
12.6201
 21
112.728
 31
0.0
  0
LINE
  8
0
 62
     0
 10
12.6201
 20
112.728
 30
0.0
 11
12.6201
 21
126.727
 31
0.0
  0
LINE
  8
0
 62
     0
 10
4.55306
 20
135.917
 30
0.0
 11
4.0652
 21
135.669
 31
0.0
  0
LINE
  8
0
 62
     0
 10
4.0652
 20
135.669
 30
0.0
 11
3.67799
 21
135.282
 31
0.0
  0
LINE
  8
0
 62
     0
 10
3.67799
 20
135.282
 30
0.0
 11
3.42994
 21
134.794
 31
0.0
  0
LINE
  8
0
 62
     0
 10
3.42994
 20
134.794
 30
0.0
 11
3.3445
 21
134.253
 31
0.0
  0
LINE
  8
0
 62
     0
 10
3.3445
 20
134.253
 30
0.0
 11
3.42994
 21
133.712
 31
0.0
  0
LINE
  8
0
 62
     0
 10
3.42994
 20
133.712
 30
0.0
 11
3.67799
 21
133.225
 31
0.0
  0
LINE
  8
0
 62
     0
 10
3.67799
 20
133.225
 30
0.0
 11
4.0652
 21
132.837
 31
0.0
  0
LINE
  8
0
 62
     0
 10
4.0652
 20
132.837
 30
0.0
 11
4.55306
 21
132.589
 31
0.0
  0
LINE
  8
0
 62
     0
 10
4.55306
 20
132.589
 30
0.0
 11
5.0946
 21
132.503
 31
0.0
  0
LINE
  8
0
 62
     0
 10
5.0946
 20
132.503
 30
0.0
 11
5.63481
 21
132.589
 31
0.0
  0
LINE
  8
0
 62
     0
 10
5.63481
 20
132.589
 30
0.0
 11
6.12263
 21
132.837
 31
0.0
  0
LINE
  8
0
 62
     0
 10
6.12263
 20
132.837
 30
0.0
 11
6.50984
 21
133.225
 31
0.0
  0
LINE
  8
0
 62
     0
 10
6.50984
 20
133.225
 30
0.0
 11
6.75792
 21
133.712
 31
0.0
  0
LINE
  8
0
 62
     0
 10
6.75792
 20
133.712
 30
0.0
 11
6.8447
 21
134.253
 31
0.0
  0
LINE
  8
0
 62
     0
 10
6.8447
 20
134.253
 30
0.0
 11
6.75792
 21
134.794
 31
0.0
  0
LINE
  8
0
 62
     0
 10
6.75792
 20
134.794
 30
0.0
 11
6.50984
 21
135.282
 31
0.0
  0
LINE
  8
0
 62
     0
 10
6.50984
 20
135.282
 30
0.0
 11
6.12263
 21
135.669
 31
0.0
  0
LINE
  8
0
 62
     0
 10
6.12263
 20
135.669
 30
0.0
 11
5.63481
 21
135.917
 31
0.0
  0
LINE
  8
0
 62
     0
 10
5.63481
 20
135.917
 30
0.0
 11
5.0946
 21
136.003
 31
0.0
  0
LINE
  8
0
 62
     0
 10
5.0946
 20
136.003
 30
0.0
 11
4.55306
 21
135.917
 31
0.0
  0
LINE
  8
0
 62
     0
 10
405.081
 20
135.917
 30
0.0
 11
404.594
 21
135.669
 31
0.0
  0
LINE
  8
0
 62
     0
 10
404.594
 20
135.669
 30
0.0
 11
404.206
 21
135.282
 31
0.0
  0
LINE
  8
0
 62
     0
 10
404.206
 20
135.282
 30
0.0
 11
403.955
 21
134.794
 31
0.0
  0
LINE
  8
0
 62
     0
 10
403.955
 20
134.794
 30
0.0
 11
403.871
 21
134.253
 31
0.0
  0
LINE
  8
0
 62
     0
 10
403.871
 20
134.253
 30
0.0
 11
403.955
 21
133.712
 31
0.0
  0
LINE
  8
0
 62
     0
 10
403.955
 20
133.712
 30
0.0
 11
404.206
 21
133.225
 31
0.0
  0
LINE
  8
0
 62
     0
 10
404.206
 20
133.225
 30
0.0
 11
404.594
 21
132.837
 31
0.0
  0
LINE
  8
0
 62
     0
 10
404.594
 20
132.837
 30
0.0
 11
405.081
 21
132.589
 31
0.0
  0
LINE
  8
0
 62
     0
 10
405.081
 20
132.589
 30
0.0
 11
405.62
 21
132.503
 31
0.0
  0
LINE
  8
0
 62
     0
 10
405.62
 20
132.503
 30
0.0
 11
406.16
 21
132.589
 31
0.0
  0
LINE
  8
0
 62
     0
 10
406.16
 20
132.589
 30
0.0
 11
406.647
 21
132.837
 31
0.0
  0
LINE
  8
0
 62
     0
 10
406.647
 20
132.837
 30
0.0
 11
407.035
 21
133.225
 31
0.0
  0
LINE
  8
0
 62
     0
 10
407.035
 20
133.225
 30
0.0
 11
407.285
 21
133.712
 31
0.0
  0
LINE
  8
0
 62
     0
 10
407.285
 20
133.712
 30
0.0
 11
407.37
 21
134.253
 31
0.0
  0
LINE
  8
0
 62
     0
 10
407.37
 20
134.253
 30
0.0
 11
407.285
 21
134.794
 31
0.0
  0
LINE
  8
0
 62
     0
 10
407.285
 20
134.794
 30
0.0
 11
407.035
 21
135.282
 31
0.0
  0
LINE
  8
0
 62
     0
 10
407.035
 20
135.282
 30
0.0
 11
406.647
 21
135.669
 31
0.0
  0
LINE
  8
0
 62
     0
 10
406.647
 20
135.669
 30
0.0
 11
406.16
 21
135.917
 31
0.0
  0
LINE
  8
0
 62
     0
 10
406.16
 20
135.917
 30
0.0
 11
405.62
 21
136.003
 31
0.0
  0
LINE
  8
0
 62
     0
 10
405.62
 20
136.003
 30
0.0
 11
405.081
 21
135.917
 31
0.0
  0
LINE
  8
0
 62
     0
 10
304.947
 20
135.917
 30
0.0
 11
304.46
 21
135.669
 31
0.0
  0
LINE
  8
0
 62
     0
 10
304.46
 20
135.669
 30
0.0
 11
304.073
 21
135.282
 31
0.0
  0
LINE
  8
0
 62
     0
 10
304.073
 20
135.282
 30
0.0
 11
303.824
 21
134.794
 31
0.0
  0
LINE
  8
0
 62
     0
 10
303.824
 20
134.794
 30
0.0
 11
303.739
 21
134.253
 31
0.0
  0
LINE
  8
0
 62
     0
 10
303.739
 20
134.253
 30
0.0
 11
303.824
 21
133.712
 31
0.0
  0
LINE
  8
0
 62
     0
 10
303.824
 20
133.712
 30
0.0
 11
304.073
 21
133.225
 31
0.0
  0
LINE
  8
0
 62
     0
 10
304.073
 20
133.225
 30
0.0
 11
304.46
 21
132.837
 31
0.0
  0
LINE
  8
0
 62
     0
 10
304.46
 20
132.837
 30
0.0
 11
304.947
 21
132.589
 31
0.0
  0
LINE
  8
0
 62
     0
 10
304.947
 20
132.589
 30
0.0
 11
305.489
 21
132.503
 31
0.0
  0
LINE
  8
0
 62
     0
 10
305.489
 20
132.503
 30
0.0
 11
306.029
 21
132.589
 31
0.0
  0
LINE
  8
0
 62
     0
 10
306.029
 20
132.589
 30
0.0
 11
306.517
 21
132.837
 31
0.0
  0
LINE
  8
0
 62
     0
 10
306.517
 20
132.837
 30
0.0
 11
306.904
 21
133.225
 31
0.0
  0
LINE
  8
0
 62
     0
 10
306.904
 20
133.225
 30
0.0
 11
307.152
 21
133.712
 31
0.0
  0
LINE
  8
0
 62
     0
 10
307.152
 20
133.712
 30
0.0
 11
307.239
 21
134.253
 31
0.0
  0
LINE
  8
0
 62
     0
 10
307.239
 20
134.253
 30
0.0
 11
307.152
 21
134.794
 31
0.0
  0
LINE
  8
0
 62
     0
 10
307.152
 20
134.794
 30
0.0
 11
306.904
 21
135.282
 31
0.0
  0
LINE
  8
0
 62
     0
 10
306.904
 20
135.282
 30
0.0
 11
306.517
 21
135.669
 31
0.0
  0
LINE
  8
0
 62
     0
 10
306.517
 20
135.669
 30
0.0
 11
306.029
 21
135.917
 31
0.0
  0
LINE
  8
0
 62
     0
 10
306.029
 20
135.917
 30
0.0
 11
305.489
 21
136.003
 31
0.0
  0
LINE
  8
0
 62
     0
 10
305.489
 20
136.003
 30
0.0
 11
304.947
 21
135.917
 31
0.0
  0
LINE
  8
0
 62
     0
 10
204.816
 20
135.917
 30
0.0
 11
204.329
 21
135.669
 31
0.0
  0
LINE
  8
0
 62
     0
 10
204.329
 20
135.669
 30
0.0
 11
203.942
 21
135.282
 31
0.0
  0
LINE
  8
0
 62
     0
 10
203.942
 20
135.282
 30
0.0
 11
203.692
 21
134.794
 31
0.0
  0
LINE
  8
0
 62
     0
 10
203.692
 20
134.794
 30
0.0
 11
203.608
 21
134.253
 31
0.0
  0
LINE
  8
0
 62
     0
 10
203.608
 20
134.253
 30
0.0
 11
203.692
 21
133.712
 31
0.0
  0
LINE
  8
0
 62
     0
 10
203.692
 20
133.712
 30
0.0
 11
203.942
 21
133.225
 31
0.0
  0
LINE
  8
0
 62
     0
 10
203.942
 20
133.225
 30
0.0
 11
204.329
 21
132.837
 31
0.0
  0
LINE
  8
0
 62
     0
 10
204.329
 20
132.837
 30
0.0
 11
204.816
 21
132.589
 31
0.0
  0
LINE
  8
0
 62
     0
 10
204.816
 20
132.589
 30
0.0
 11
205.358
 21
132.503
 31
0.0
  0
LINE
  8
0
 62
     0
 10
205.358
 20
132.503
 30
0.0
 11
205.897
 21
132.589
 31
0.0
  0
LINE
  8
0
 62
     0
 10
205.897
 20
132.589
 30
0.0
 11
206.386
 21
132.837
 31
0.0
  0
LINE
  8
0
 62
     0
 10
206.386
 20
132.837
 30
0.0
 11
206.772
 21
133.225
 31
0.0
  0
LINE
  8
0
 62
     0
 10
206.772
 20
133.225
 30
0.0
 11
207.021
 21
133.712
 31
0.0
  0
LINE
  8
0
 62
     0
 10
207.021
 20
133.712
 30
0.0
 11
207.108
 21
134.253
 31
0.0
  0
LINE
  8
0
 62
     0
 10
207.108
 20
134.253
 30
0.0
 11
207.021
 21
134.794
 31
0.0
  0
LINE
  8
0
 62
     0
 10
207.021
 20
134.794
 30
0.0
 11
206.772
 21
135.282
 31
0.0
  0
LINE
  8
0
 62
     0
 10
206.772
 20
135.282
 30
0.0
 11
206.386
 21
135.669
 31
0.0
  0
LINE
  8
0
 62
     0
 10
206.386
 20
135.669
 30
0.0
 11
205.897
 21
135.917
 31
0.0
  0
LINE
  8
0
 62
     0
 10
205.897
 20
135.917
 30
0.0
 11
205.358
 21
136.003
 31
0.0
  0
LINE
  8
0
 62
     0
 10
205.358
 20
136.003
 30
0.0
 11
204.816
 21
135.917
 31
0.0
  0
LINE
  8
0
 62
     0
 10
104.684
 20
135.917
 30
0.0
 11
104.196
 21
135.669
 31
0.0
  0
LINE
  8
0
 62
     0
 10
104.196
 20
135.669
 30
0.0
 11
103.809
 21
135.282
 31
0.0
  0
LINE
  8
0
 62
     0
 10
103.809
 20
135.282
 30
0.0
 11
103.561
 21
134.794
 31
0.0
  0
LINE
  8
0
 62
     0
 10
103.561
 20
134.794
 30
0.0
 11
103.475
 21
134.253
 31
0.0
  0
LINE
  8
0
 62
     0
 10
103.475
 20
134.253
 30
0.0
 11
103.561
 21
133.712
 31
0.0
  0
LINE
  8
0
 62
     0
 10
103.561
 20
133.712
 30
0.0
 11
103.809
 21
133.225
 31
0.0
  0
LINE
  8
0
 62
     0
 10
103.809
 20
133.225
 30
0.0
 11
104.196
 21
132.837
 31
0.0
  0
LINE
  8
0
 62
     0
 10
104.196
 20
132.837
 30
0.0
 11
104.684
 21
132.589
 31
0.0
  0
LINE
  8
0
 62
     0
 10
104.684
 20
132.589
 30
0.0
 11
105.226
 21
132.503
 31
0.0
  0
LINE
  8
0
 62
     0
 10
105.226
 20
132.503
 30
0.0
 11
105.766
 21
132.589
 31
0.0
  0
LINE
  8
0
 62
     0
 10
105.766
 20
132.589
 30
0.0
 11
106.255
 21
132.837
 31
0.0
  0
LINE
  8
0
 62
     0
 10
106.255
 20
132.837
 30
0.0
 11
106.641
 21
133.225
 31
0.0
  0
LINE
  8
0
 62
     0
 10
106.641
 20
133.225
 30
0.0
 11
106.889
 21
133.712
 31
0.0
  0
LINE
  8
0
 62
     0
 10
106.889
 20
133.712
 30
0.0
 11
106.976
 21
134.253
 31
0.0
  0
LINE
  8
0
 62
     0
 10
106.976
 20
134.253
 30
0.0
 11
106.889
 21
134.794
 31
0.0
  0
LINE
  8
0
 62
     0
 10
106.889
 20
134.794
 30
0.0
 11
106.641
 21
135.282
 31
0.0
  0
LINE
  8
0
 62
     0
 10
106.641
 20
135.282
 30
0.0
 11
106.255
 21
135.669
 31
0.0
  0
LINE
  8
0
 62
     0
 10
106.255
 20
135.669
 30
0.0
 11
105.766
 21
135.917
 31
0.0
  0
LINE
  8
0
 62
     0
 10
105.766
 20
135.917
 30
0.0
 11
105.226
 21
136.003
 31
0.0
  0
LINE
  8
0
 62
     0
 10
105.226
 20
136.003
 30
0.0
 11
104.684
 21
135.917
 31
0.0
  0
ENDSEC
  0
EOF
