  0
SECTION
  2
HEADER
  9
$ACADVER
  1
AC1009
  9
$EXTMIN
 10
0.0
 20
0.0
 30
0.0
  9
$EXTMAX
 10
1000.0
 20
1000.0
 30
0.0
  9
$FILLMODE
 70
 0
  9
$SPLFRAME
 70
 1
  0
ENDSEC
  0
SECTION
  2
TABLES
  0
TABLE
  2
LAYER
 70
1
  0
LAYER
  2
0
 70
     0
 62
     7
  6
CONTINUOUS
  0
ENDTAB
  0
ENDSEC
  0
SECTION
  2
ENTITIES
  0
LINE
  8
0
 62
     0
 10
0.0950846
 20
139.252
 30
0.0
 11
410.619
 21
139.252
 31
0.0
  0
LINE
  8
0
 62
     0
 10
410.619
 20
139.252
 30
0.0
 11
410.619
 21
0.190169
 31
0.0
  0
LINE
  8
0
 62
     0
 10
410.619
 20
0.190169
 30
0.0
 11
0.0950846
 21
0.190169
 31
0.0
  0
LINE
  8
0
 62
     0
 10
0.0950846
 20
0.190169
 30
0.0
 11
0.0950846
 21
139.252
 31
0.0
  0
LINE
  8
0
 62
     0
 10
4.55306
 20
6.85437
 30
0.0
 11
4.0652
 21
6.60633
 31
0.0
  0
LINE
  8
0
 62
     0
 10
4.0652
 20
6.60633
 30
0.0
 11
3.67799
 21
6.21908
 31
0.0
  0
LINE
  8
0
 62
     0
 10
3.67799
 20
6.21908
 30
0.0
 11
3.42994
 21
5.73126
 31
0.0
  0
LINE
  8
0
 62
     0
 10
3.42994
 20
5.73126
 30
0.0
 11
3.3445
 21
5.18968
 31
0.0
  0
LINE
  8
0
 62
     0
 10
3.3445
 20
5.18968
 30
0.0
 11
3.42994
 21
4.64813
 31
0.0
  0
LINE
  8
0
 62
     0
 10
3.42994
 20
4.64813
 30
0.0
 11
3.67799
 21
4.16031
 31
0.0
  0
LINE
  8
0
 62
     0
 10
3.67799
 20
4.16031
 30
0.0
 11
4.0652
 21
3.77306
 31
0.0
  0
LINE
  8
0
 62
     0
 10
4.0652
 20
3.77306
 30
0.0
 11
4.55306
 21
3.5264
 31
0.0
  0
LINE
  8
0
 62
     0
 10
4.55306
 20
3.5264
 30
0.0
 11
5.0946
 21
3.43958
 31
0.0
  0
LINE
  8
0
 62
     0
 10
5.0946
 20
3.43958
 30
0.0
 11
5.63481
 21
3.5264
 31
0.0
  0
LINE
  8
0
 62
     0
 10
5.63481
 20
3.5264
 30
0.0
 11
6.12263
 21
3.77306
 31
0.0
  0
LINE
  8
0
 62
     0
 10
6.12263
 20
3.77306
 30
0.0
 11
6.50984
 21
4.16031
 31
0.0
  0
LINE
  8
0
 62
     0
 10
6.50984
 20
4.16031
 30
0.0
 11
6.75792
 21
4.64813
 31
0.0
  0
LINE
  8
0
 62
     0
 10
6.75792
 20
4.64813
 30
0.0
 11
6.8447
 21
5.18968
 31
0.0
  0
LINE
  8
0
 62
     0
 10
6.8447
 20
5.18968
 30
0.0
 11
6.75792
 21
5.73126
 31
0.0
  0
LINE
  8
0
 62
     0
 10
6.75792
 20
5.73126
 30
0.0
 11
6.50984
 21
6.21908
 31
0.0
  0
LINE
  8
0
 62
     0
 10
6.50984
 20
6.21908
 30
0.0
 11
6.12263
 21
6.60633
 31
0.0
  0
LINE
  8
0
 62
     0
 10
6.12263
 20
6.60633
 30
0.0
 11
5.63481
 21
6.85437
 31
0.0
  0
LINE
  8
0
 62
     0
 10
5.63481
 20
6.85437
 30
0.0
 11
5.0946
 21
6.93981
 31
0.0
  0
LINE
  8
0
 62
     0
 10
5.0946
 20
6.93981
 30
0.0
 11
4.55306
 21
6.85437
 31
0.0
  0
LINE
  8
0
 62
     0
 10
104.684
 20
6.85437
 30
0.0
 11
104.196
 21
6.60633
 31
0.0
  0
LINE
  8
0
 62
     0
 10
104.196
 20
6.60633
 30
0.0
 11
103.809
 21
6.21908
 31
0.0
  0
LINE
  8
0
 62
     0
 10
103.809
 20
6.21908
 30
0.0
 11
103.561
 21
5.73126
 31
0.0
  0
LINE
  8
0
 62
     0
 10
103.561
 20
5.73126
 30
0.0
 11
103.475
 21
5.18968
 31
0.0
  0
LINE
  8
0
 62
     0
 10
103.475
 20
5.18968
 30
0.0
 11
103.561
 21
4.64813
 31
0.0
  0
LINE
  8
0
 62
     0
 10
103.561
 20
4.64813
 30
0.0
 11
103.809
 21
4.16031
 31
0.0
  0
LINE
  8
0
 62
     0
 10
103.809
 20
4.16031
 30
0.0
 11
104.196
 21
3.77306
 31
0.0
  0
LINE
  8
0
 62
     0
 10
104.196
 20
3.77306
 30
0.0
 11
104.684
 21
3.5264
 31
0.0
  0
LINE
  8
0
 62
     0
 10
104.684
 20
3.5264
 30
0.0
 11
105.226
 21
3.43958
 31
0.0
  0
LINE
  8
0
 62
     0
 10
105.226
 20
3.43958
 30
0.0
 11
105.766
 21
3.5264
 31
0.0
  0
LINE
  8
0
 62
     0
 10
105.766
 20
3.5264
 30
0.0
 11
106.255
 21
3.77306
 31
0.0
  0
LINE
  8
0
 62
     0
 10
106.255
 20
3.77306
 30
0.0
 11
106.641
 21
4.16031
 31
0.0
  0
LINE
  8
0
 62
     0
 10
106.641
 20
4.16031
 30
0.0
 11
106.889
 21
4.64813
 31
0.0
  0
LINE
  8
0
 62
     0
 10
106.889
 20
4.64813
 30
0.0
 11
106.976
 21
5.18968
 31
0.0
  0
LINE
  8
0
 62
     0
 10
106.976
 20
5.18968
 30
0.0
 11
106.889
 21
5.73126
 31
0.0
  0
LINE
  8
0
 62
     0
 10
106.889
 20
5.73126
 30
0.0
 11
106.641
 21
6.21908
 31
0.0
  0
LINE
  8
0
 62
     0
 10
106.641
 20
6.21908
 30
0.0
 11
106.255
 21
6.60633
 31
0.0
  0
LINE
  8
0
 62
     0
 10
106.255
 20
6.60633
 30
0.0
 11
105.766
 21
6.85437
 31
0.0
  0
LINE
  8
0
 62
     0
 10
105.766
 20
6.85437
 30
0.0
 11
105.226
 21
6.93981
 31
0.0
  0
LINE
  8
0
 62
     0
 10
105.226
 20
6.93981
 30
0.0
 11
104.684
 21
6.85437
 31
0.0
  0
LINE
  8
0
 62
     0
 10
204.816
 20
6.85437
 30
0.0
 11
204.329
 21
6.60633
 31
0.0
  0
LINE
  8
0
 62
     0
 10
204.329
 20
6.60633
 30
0.0
 11
203.942
 21
6.21908
 31
0.0
  0
LINE
  8
0
 62
     0
 10
203.942
 20
6.21908
 30
0.0
 11
203.692
 21
5.73126
 31
0.0
  0
LINE
  8
0
 62
     0
 10
203.692
 20
5.73126
 30
0.0
 11
203.608
 21
5.18968
 31
0.0
  0
LINE
  8
0
 62
     0
 10
203.608
 20
5.18968
 30
0.0
 11
203.692
 21
4.64813
 31
0.0
  0
LINE
  8
0
 62
     0
 10
203.692
 20
4.64813
 30
0.0
 11
203.942
 21
4.16031
 31
0.0
  0
LINE
  8
0
 62
     0
 10
203.942
 20
4.16031
 30
0.0
 11
204.329
 21
3.77306
 31
0.0
  0
LINE
  8
0
 62
     0
 10
204.329
 20
3.77306
 30
0.0
 11
204.816
 21
3.5264
 31
0.0
  0
LINE
  8
0
 62
     0
 10
204.816
 20
3.5264
 30
0.0
 11
205.358
 21
3.43958
 31
0.0
  0
LINE
  8
0
 62
     0
 10
205.358
 20
3.43958
 30
0.0
 11
205.897
 21
3.5264
 31
0.0
  0
LINE
  8
0
 62
     0
 10
205.897
 20
3.5264
 30
0.0
 11
206.386
 21
3.77306
 31
0.0
  0
LINE
  8
0
 62
     0
 10
206.386
 20
3.77306
 30
0.0
 11
206.772
 21
4.16031
 31
0.0
  0
LINE
  8
0
 62
     0
 10
206.772
 20
4.16031
 30
0.0
 11
207.021
 21
4.64813
 31
0.0
  0
LINE
  8
0
 62
     0
 10
207.021
 20
4.64813
 30
0.0
 11
207.108
 21
5.18968
 31
0.0
  0
LINE
  8
0
 62
     0
 10
207.108
 20
5.18968
 30
0.0
 11
207.021
 21
5.73126
 31
0.0
  0
LINE
  8
0
 62
     0
 10
207.021
 20
5.73126
 30
0.0
 11
206.772
 21
6.21908
 31
0.0
  0
LINE
  8
0
 62
     0
 10
206.772
 20
6.21908
 30
0.0
 11
206.386
 21
6.60633
 31
0.0
  0
LINE
  8
0
 62
     0
 10
206.386
 20
6.60633
 30
0.0
 11
205.897
 21
6.85437
 31
0.0
  0
LINE
  8
0
 62
     0
 10
205.897
 20
6.85437
 30
0.0
 11
205.358
 21
6.93981
 31
0.0
  0
LINE
  8
0
 62
     0
 10
205.358
 20
6.93981
 30
0.0
 11
204.816
 21
6.85437
 31
0.0
  0
LINE
  8
0
 62
     0
 10
304.947
 20
6.85437
 30
0.0
 11
304.46
 21
6.60633
 31
0.0
  0
LINE
  8
0
 62
     0
 10
304.46
 20
6.60633
 30
0.0
 11
304.073
 21
6.21908
 31
0.0
  0
LINE
  8
0
 62
     0
 10
304.073
 20
6.21908
 30
0.0
 11
303.824
 21
5.73126
 31
0.0
  0
LINE
  8
0
 62
     0
 10
303.824
 20
5.73126
 30
0.0
 11
303.739
 21
5.18968
 31
0.0
  0
LINE
  8
0
 62
     0
 10
303.739
 20
5.18968
 30
0.0
 11
303.824
 21
4.64813
 31
0.0
  0
LINE
  8
0
 62
     0
 10
303.824
 20
4.64813
 30
0.0
 11
304.073
 21
4.16031
 31
0.0
  0
LINE
  8
0
 62
     0
 10
304.073
 20
4.16031
 30
0.0
 11
304.46
 21
3.77306
 31
0.0
  0
LINE
  8
0
 62
     0
 10
304.46
 20
3.77306
 30
0.0
 11
304.947
 21
3.5264
 31
0.0
  0
LINE
  8
0
 62
     0
 10
304.947
 20
3.5264
 30
0.0
 11
305.489
 21
3.43958
 31
0.0
  0
LINE
  8
0
 62
     0
 10
305.489
 20
3.43958
 30
0.0
 11
306.029
 21
3.5264
 31
0.0
  0
LINE
  8
0
 62
     0
 10
306.029
 20
3.5264
 30
0.0
 11
306.517
 21
3.77306
 31
0.0
  0
LINE
  8
0
 62
     0
 10
306.517
 20
3.77306
 30
0.0
 11
306.904
 21
4.16031
 31
0.0
  0
LINE
  8
0
 62
     0
 10
306.904
 20
4.16031
 30
0.0
 11
307.152
 21
4.64813
 31
0.0
  0
LINE
  8
0
 62
     0
 10
307.152
 20
4.64813
 30
0.0
 11
307.239
 21
5.18968
 31
0.0
  0
LINE
  8
0
 62
     0
 10
307.239
 20
5.18968
 30
0.0
 11
307.152
 21
5.73126
 31
0.0
  0
LINE
  8
0
 62
     0
 10
307.152
 20
5.73126
 30
0.0
 11
306.904
 21
6.21908
 31
0.0
  0
LINE
  8
0
 62
     0
 10
306.904
 20
6.21908
 30
0.0
 11
306.517
 21
6.60633
 31
0.0
  0
LINE
  8
0
 62
     0
 10
306.517
 20
6.60633
 30
0.0
 11
306.029
 21
6.85437
 31
0.0
  0
LINE
  8
0
 62
     0
 10
306.029
 20
6.85437
 30
0.0
 11
305.489
 21
6.93981
 31
0.0
  0
LINE
  8
0
 62
     0
 10
305.489
 20
6.93981
 30
0.0
 11
304.947
 21
6.85437
 31
0.0
  0
LINE
  8
0
 62
     0
 10
405.081
 20
6.85437
 30
0.0
 11
404.594
 21
6.60633
 31
0.0
  0
LINE
  8
0
 62
     0
 10
404.594
 20
6.60633
 30
0.0
 11
404.206
 21
6.21908
 31
0.0
  0
LINE
  8
0
 62
     0
 10
404.206
 20
6.21908
 30
0.0
 11
403.955
 21
5.73126
 31
0.0
  0
LINE
  8
0
 62
     0
 10
403.955
 20
5.73126
 30
0.0
 11
403.871
 21
5.18968
 31
0.0
  0
LINE
  8
0
 62
     0
 10
403.871
 20
5.18968
 30
0.0
 11
403.955
 21
4.64813
 31
0.0
  0
LINE
  8
0
 62
     0
 10
403.955
 20
4.64813
 30
0.0
 11
404.206
 21
4.16031
 31
0.0
  0
LINE
  8
0
 62
     0
 10
404.206
 20
4.16031
 30
0.0
 11
404.594
 21
3.77306
 31
0.0
  0
LINE
  8
0
 62
     0
 10
404.594
 20
3.77306
 30
0.0
 11
405.081
 21
3.5264
 31
0.0
  0
LINE
  8
0
 62
     0
 10
405.081
 20
3.5264
 30
0.0
 11
405.62
 21
3.43958
 31
0.0
  0
LINE
  8
0
 62
     0
 10
405.62
 20
3.43958
 30
0.0
 11
406.16
 21
3.5264
 31
0.0
  0
LINE
  8
0
 62
     0
 10
406.16
 20
3.5264
 30
0.0
 11
406.647
 21
3.77306
 31
0.0
  0
LINE
  8
0
 62
     0
 10
406.647
 20
3.77306
 30
0.0
 11
407.035
 21
4.16031
 31
0.0
  0
LINE
  8
0
 62
     0
 10
407.035
 20
4.16031
 30
0.0
 11
407.285
 21
4.64813
 31
0.0
  0
LINE
  8
0
 62
     0
 10
407.285
 20
4.64813
 30
0.0
 11
407.37
 21
5.18968
 31
0.0
  0
LINE
  8
0
 62
     0
 10
407.37
 20
5.18968
 30
0.0
 11
407.285
 21
5.73126
 31
0.0
  0
LINE
  8
0
 62
     0
 10
407.285
 20
5.73126
 30
0.0
 11
407.035
 21
6.21908
 31
0.0
  0
LINE
  8
0
 62
     0
 10
407.035
 20
6.21908
 30
0.0
 11
406.647
 21
6.60633
 31
0.0
  0
LINE
  8
0
 62
     0
 10
406.647
 20
6.60633
 30
0.0
 11
406.16
 21
6.85437
 31
0.0
  0
LINE
  8
0
 62
     0
 10
406.16
 20
6.85437
 30
0.0
 11
405.62
 21
6.93981
 31
0.0
  0
LINE
  8
0
 62
     0
 10
405.62
 20
6.93981
 30
0.0
 11
405.081
 21
6.85437
 31
0.0
  0
LINE
  8
0
 62
     0
 10
4.55306
 20
71.3853
 30
0.0
 11
4.0652
 21
71.1369
 31
0.0
  0
LINE
  8
0
 62
     0
 10
4.0652
 20
71.1369
 30
0.0
 11
3.67799
 21
70.7499
 31
0.0
  0
LINE
  8
0
 62
     0
 10
3.67799
 20
70.7499
 30
0.0
 11
3.42994
 21
70.2635
 31
0.0
  0
LINE
  8
0
 62
     0
 10
3.42994
 20
70.2635
 30
0.0
 11
3.3445
 21
69.7219
 31
0.0
  0
LINE
  8
0
 62
     0
 10
3.3445
 20
69.7219
 30
0.0
 11
3.42994
 21
69.1804
 31
0.0
  0
LINE
  8
0
 62
     0
 10
3.42994
 20
69.1804
 30
0.0
 11
3.67799
 21
68.6925
 31
0.0
  0
LINE
  8
0
 62
     0
 10
3.67799
 20
68.6925
 30
0.0
 11
4.0652
 21
68.3052
 31
0.0
  0
LINE
  8
0
 62
     0
 10
4.0652
 20
68.3052
 30
0.0
 11
4.55306
 21
68.0572
 31
0.0
  0
LINE
  8
0
 62
     0
 10
4.55306
 20
68.0572
 30
0.0
 11
5.0946
 21
67.9718
 31
0.0
  0
LINE
  8
0
 62
     0
 10
5.0946
 20
67.9718
 30
0.0
 11
5.63481
 21
68.0572
 31
0.0
  0
LINE
  8
0
 62
     0
 10
5.63481
 20
68.0572
 30
0.0
 11
6.12263
 21
68.3052
 31
0.0
  0
LINE
  8
0
 62
     0
 10
6.12263
 20
68.3052
 30
0.0
 11
6.50984
 21
68.6925
 31
0.0
  0
LINE
  8
0
 62
     0
 10
6.50984
 20
68.6925
 30
0.0
 11
6.75792
 21
69.1804
 31
0.0
  0
LINE
  8
0
 62
     0
 10
6.75792
 20
69.1804
 30
0.0
 11
6.8447
 21
69.7219
 31
0.0
  0
LINE
  8
0
 62
     0
 10
6.8447
 20
69.7219
 30
0.0
 11
6.75792
 21
70.2635
 31
0.0
  0
LINE
  8
0
 62
     0
 10
6.75792
 20
70.2635
 30
0.0
 11
6.50984
 21
70.7499
 31
0.0
  0
LINE
  8
0
 62
     0
 10
6.50984
 20
70.7499
 30
0.0
 11
6.12263
 21
71.1369
 31
0.0
  0
LINE
  8
0
 62
     0
 10
6.12263
 20
71.1369
 30
0.0
 11
5.63481
 21
71.3853
 31
0.0
  0
LINE
  8
0
 62
     0
 10
5.63481
 20
71.3853
 30
0.0
 11
5.0946
 21
71.4721
 31
0.0
  0
LINE
  8
0
 62
     0
 10
5.0946
 20
71.4721
 30
0.0
 11
4.55306
 21
71.3853
 31
0.0
  0
LINE
  8
0
 62
     0
 10
405.081
 20
71.3853
 30
0.0
 11
404.594
 21
71.1369
 31
0.0
  0
LINE
  8
0
 62
     0
 10
404.594
 20
71.1369
 30
0.0
 11
404.206
 21
70.7499
 31
0.0
  0
LINE
  8
0
 62
     0
 10
404.206
 20
70.7499
 30
0.0
 11
403.955
 21
70.2635
 31
0.0
  0
LINE
  8
0
 62
     0
 10
403.955
 20
70.2635
 30
0.0
 11
403.871
 21
69.7219
 31
0.0
  0
LINE
  8
0
 62
     0
 10
403.871
 20
69.7219
 30
0.0
 11
403.955
 21
69.1804
 31
0.0
  0
LINE
  8
0
 62
     0
 10
403.955
 20
69.1804
 30
0.0
 11
404.206
 21
68.6925
 31
0.0
  0
LINE
  8
0
 62
     0
 10
404.206
 20
68.6925
 30
0.0
 11
404.594
 21
68.3052
 31
0.0
  0
LINE
  8
0
 62
     0
 10
404.594
 20
68.3052
 30
0.0
 11
405.081
 21
68.0572
 31
0.0
  0
LINE
  8
0
 62
     0
 10
405.081
 20
68.0572
 30
0.0
 11
405.62
 21
67.9718
 31
0.0
  0
LINE
  8
0
 62
     0
 10
405.62
 20
67.9718
 30
0.0
 11
406.16
 21
68.0572
 31
0.0
  0
LINE
  8
0
 62
     0
 10
406.16
 20
68.0572
 30
0.0
 11
406.647
 21
68.3052
 31
0.0
  0
LINE
  8
0
 62
     0
 10
406.647
 20
68.3052
 30
0.0
 11
407.035
 21
68.6925
 31
0.0
  0
LINE
  8
0
 62
     0
 10
407.035
 20
68.6925
 30
0.0
 11
407.285
 21
69.1804
 31
0.0
  0
LINE
  8
0
 62
     0
 10
407.285
 20
69.1804
 30
0.0
 11
407.37
 21
69.7219
 31
0.0
  0
LINE
  8
0
 62
     0
 10
407.37
 20
69.7219
 30
0.0
 11
407.285
 21
70.2635
 31
0.0
  0
LINE
  8
0
 62
     0
 10
407.285
 20
70.2635
 30
0.0
 11
407.035
 21
70.7499
 31
0.0
  0
LINE
  8
0
 62
     0
 10
407.035
 20
70.7499
 30
0.0
 11
406.647
 21
71.1369
 31
0.0
  0
LINE
  8
0
 62
     0
 10
406.647
 20
71.1369
 30
0.0
 11
406.16
 21
71.3853
 31
0.0
  0
LINE
  8
0
 62
     0
 10
406.16
 20
71.3853
 30
0.0
 11
405.62
 21
71.4721
 31
0.0
  0
LINE
  8
0
 62
     0
 10
405.62
 20
71.4721
 30
0.0
 11
405.081
 21
71.3853
 31
0.0
  0
LINE
  8
0
 62
     0
 10
4.55306
 20
135.917
 30
0.0
 11
4.0652
 21
135.669
 31
0.0
  0
LINE
  8
0
 62
     0
 10
4.0652
 20
135.669
 30
0.0
 11
3.67799
 21
135.282
 31
0.0
  0
LINE
  8
0
 62
     0
 10
3.67799
 20
135.282
 30
0.0
 11
3.42994
 21
134.794
 31
0.0
  0
LINE
  8
0
 62
     0
 10
3.42994
 20
134.794
 30
0.0
 11
3.3445
 21
134.253
 31
0.0
  0
LINE
  8
0
 62
     0
 10
3.3445
 20
134.253
 30
0.0
 11
3.42994
 21
133.712
 31
0.0
  0
LINE
  8
0
 62
     0
 10
3.42994
 20
133.712
 30
0.0
 11
3.67799
 21
133.225
 31
0.0
  0
LINE
  8
0
 62
     0
 10
3.67799
 20
133.225
 30
0.0
 11
4.0652
 21
132.837
 31
0.0
  0
LINE
  8
0
 62
     0
 10
4.0652
 20
132.837
 30
0.0
 11
4.55306
 21
132.589
 31
0.0
  0
LINE
  8
0
 62
     0
 10
4.55306
 20
132.589
 30
0.0
 11
5.0946
 21
132.503
 31
0.0
  0
LINE
  8
0
 62
     0
 10
5.0946
 20
132.503
 30
0.0
 11
5.63481
 21
132.589
 31
0.0
  0
LINE
  8
0
 62
     0
 10
5.63481
 20
132.589
 30
0.0
 11
6.12263
 21
132.837
 31
0.0
  0
LINE
  8
0
 62
     0
 10
6.12263
 20
132.837
 30
0.0
 11
6.50984
 21
133.225
 31
0.0
  0
LINE
  8
0
 62
     0
 10
6.50984
 20
133.225
 30
0.0
 11
6.75792
 21
133.712
 31
0.0
  0
LINE
  8
0
 62
     0
 10
6.75792
 20
133.712
 30
0.0
 11
6.8447
 21
134.253
 31
0.0
  0
LINE
  8
0
 62
     0
 10
6.8447
 20
134.253
 30
0.0
 11
6.75792
 21
134.794
 31
0.0
  0
LINE
  8
0
 62
     0
 10
6.75792
 20
134.794
 30
0.0
 11
6.50984
 21
135.282
 31
0.0
  0
LINE
  8
0
 62
     0
 10
6.50984
 20
135.282
 30
0.0
 11
6.12263
 21
135.669
 31
0.0
  0
LINE
  8
0
 62
     0
 10
6.12263
 20
135.669
 30
0.0
 11
5.63481
 21
135.917
 31
0.0
  0
LINE
  8
0
 62
     0
 10
5.63481
 20
135.917
 30
0.0
 11
5.0946
 21
136.003
 31
0.0
  0
LINE
  8
0
 62
     0
 10
5.0946
 20
136.003
 30
0.0
 11
4.55306
 21
135.917
 31
0.0
  0
LINE
  8
0
 62
     0
 10
405.081
 20
135.917
 30
0.0
 11
404.594
 21
135.669
 31
0.0
  0
LINE
  8
0
 62
     0
 10
404.594
 20
135.669
 30
0.0
 11
404.206
 21
135.282
 31
0.0
  0
LINE
  8
0
 62
     0
 10
404.206
 20
135.282
 30
0.0
 11
403.955
 21
134.794
 31
0.0
  0
LINE
  8
0
 62
     0
 10
403.955
 20
134.794
 30
0.0
 11
403.871
 21
134.253
 31
0.0
  0
LINE
  8
0
 62
     0
 10
403.871
 20
134.253
 30
0.0
 11
403.955
 21
133.712
 31
0.0
  0
LINE
  8
0
 62
     0
 10
403.955
 20
133.712
 30
0.0
 11
404.206
 21
133.225
 31
0.0
  0
LINE
  8
0
 62
     0
 10
404.206
 20
133.225
 30
0.0
 11
404.594
 21
132.837
 31
0.0
  0
LINE
  8
0
 62
     0
 10
404.594
 20
132.837
 30
0.0
 11
405.081
 21
132.589
 31
0.0
  0
LINE
  8
0
 62
     0
 10
405.081
 20
132.589
 30
0.0
 11
405.62
 21
132.503
 31
0.0
  0
LINE
  8
0
 62
     0
 10
405.62
 20
132.503
 30
0.0
 11
406.16
 21
132.589
 31
0.0
  0
LINE
  8
0
 62
     0
 10
406.16
 20
132.589
 30
0.0
 11
406.647
 21
132.837
 31
0.0
  0
LINE
  8
0
 62
     0
 10
406.647
 20
132.837
 30
0.0
 11
407.035
 21
133.225
 31
0.0
  0
LINE
  8
0
 62
     0
 10
407.035
 20
133.225
 30
0.0
 11
407.285
 21
133.712
 31
0.0
  0
LINE
  8
0
 62
     0
 10
407.285
 20
133.712
 30
0.0
 11
407.37
 21
134.253
 31
0.0
  0
LINE
  8
0
 62
     0
 10
407.37
 20
134.253
 30
0.0
 11
407.285
 21
134.794
 31
0.0
  0
LINE
  8
0
 62
     0
 10
407.285
 20
134.794
 30
0.0
 11
407.035
 21
135.282
 31
0.0
  0
LINE
  8
0
 62
     0
 10
407.035
 20
135.282
 30
0.0
 11
406.647
 21
135.669
 31
0.0
  0
LINE
  8
0
 62
     0
 10
406.647
 20
135.669
 30
0.0
 11
406.16
 21
135.917
 31
0.0
  0
LINE
  8
0
 62
     0
 10
406.16
 20
135.917
 30
0.0
 11
405.62
 21
136.003
 31
0.0
  0
LINE
  8
0
 62
     0
 10
405.62
 20
136.003
 30
0.0
 11
405.081
 21
135.917
 31
0.0
  0
LINE
  8
0
 62
     0
 10
304.947
 20
135.917
 30
0.0
 11
304.46
 21
135.669
 31
0.0
  0
LINE
  8
0
 62
     0
 10
304.46
 20
135.669
 30
0.0
 11
304.073
 21
135.282
 31
0.0
  0
LINE
  8
0
 62
     0
 10
304.073
 20
135.282
 30
0.0
 11
303.824
 21
134.794
 31
0.0
  0
LINE
  8
0
 62
     0
 10
303.824
 20
134.794
 30
0.0
 11
303.739
 21
134.253
 31
0.0
  0
LINE
  8
0
 62
     0
 10
303.739
 20
134.253
 30
0.0
 11
303.824
 21
133.712
 31
0.0
  0
LINE
  8
0
 62
     0
 10
303.824
 20
133.712
 30
0.0
 11
304.073
 21
133.225
 31
0.0
  0
LINE
  8
0
 62
     0
 10
304.073
 20
133.225
 30
0.0
 11
304.46
 21
132.837
 31
0.0
  0
LINE
  8
0
 62
     0
 10
304.46
 20
132.837
 30
0.0
 11
304.947
 21
132.589
 31
0.0
  0
LINE
  8
0
 62
     0
 10
304.947
 20
132.589
 30
0.0
 11
305.489
 21
132.503
 31
0.0
  0
LINE
  8
0
 62
     0
 10
305.489
 20
132.503
 30
0.0
 11
306.029
 21
132.589
 31
0.0
  0
LINE
  8
0
 62
     0
 10
306.029
 20
132.589
 30
0.0
 11
306.517
 21
132.837
 31
0.0
  0
LINE
  8
0
 62
     0
 10
306.517
 20
132.837
 30
0.0
 11
306.904
 21
133.225
 31
0.0
  0
LINE
  8
0
 62
     0
 10
306.904
 20
133.225
 30
0.0
 11
307.152
 21
133.712
 31
0.0
  0
LINE
  8
0
 62
     0
 10
307.152
 20
133.712
 30
0.0
 11
307.239
 21
134.253
 31
0.0
  0
LINE
  8
0
 62
     0
 10
307.239
 20
134.253
 30
0.0
 11
307.152
 21
134.794
 31
0.0
  0
LINE
  8
0
 62
     0
 10
307.152
 20
134.794
 30
0.0
 11
306.904
 21
135.282
 31
0.0
  0
LINE
  8
0
 62
     0
 10
306.904
 20
135.282
 30
0.0
 11
306.517
 21
135.669
 31
0.0
  0
LINE
  8
0
 62
     0
 10
306.517
 20
135.669
 30
0.0
 11
306.029
 21
135.917
 31
0.0
  0
LINE
  8
0
 62
     0
 10
306.029
 20
135.917
 30
0.0
 11
305.489
 21
136.003
 31
0.0
  0
LINE
  8
0
 62
     0
 10
305.489
 20
136.003
 30
0.0
 11
304.947
 21
135.917
 31
0.0
  0
LINE
  8
0
 62
     0
 10
204.816
 20
135.917
 30
0.0
 11
204.329
 21
135.669
 31
0.0
  0
LINE
  8
0
 62
     0
 10
204.329
 20
135.669
 30
0.0
 11
203.942
 21
135.282
 31
0.0
  0
LINE
  8
0
 62
     0
 10
203.942
 20
135.282
 30
0.0
 11
203.692
 21
134.794
 31
0.0
  0
LINE
  8
0
 62
     0
 10
203.692
 20
134.794
 30
0.0
 11
203.608
 21
134.253
 31
0.0
  0
LINE
  8
0
 62
     0
 10
203.608
 20
134.253
 30
0.0
 11
203.692
 21
133.712
 31
0.0
  0
LINE
  8
0
 62
     0
 10
203.692
 20
133.712
 30
0.0
 11
203.942
 21
133.225
 31
0.0
  0
LINE
  8
0
 62
     0
 10
203.942
 20
133.225
 30
0.0
 11
204.329
 21
132.837
 31
0.0
  0
LINE
  8
0
 62
     0
 10
204.329
 20
132.837
 30
0.0
 11
204.816
 21
132.589
 31
0.0
  0
LINE
  8
0
 62
     0
 10
204.816
 20
132.589
 30
0.0
 11
205.358
 21
132.503
 31
0.0
  0
LINE
  8
0
 62
     0
 10
205.358
 20
132.503
 30
0.0
 11
205.897
 21
132.589
 31
0.0
  0
LINE
  8
0
 62
     0
 10
205.897
 20
132.589
 30
0.0
 11
206.386
 21
132.837
 31
0.0
  0
LINE
  8
0
 62
     0
 10
206.386
 20
132.837
 30
0.0
 11
206.772
 21
133.225
 31
0.0
  0
LINE
  8
0
 62
     0
 10
206.772
 20
133.225
 30
0.0
 11
207.021
 21
133.712
 31
0.0
  0
LINE
  8
0
 62
     0
 10
207.021
 20
133.712
 30
0.0
 11
207.108
 21
134.253
 31
0.0
  0
LINE
  8
0
 62
     0
 10
207.108
 20
134.253
 30
0.0
 11
207.021
 21
134.794
 31
0.0
  0
LINE
  8
0
 62
     0
 10
207.021
 20
134.794
 30
0.0
 11
206.772
 21
135.282
 31
0.0
  0
LINE
  8
0
 62
     0
 10
206.772
 20
135.282
 30
0.0
 11
206.386
 21
135.669
 31
0.0
  0
LINE
  8
0
 62
     0
 10
206.386
 20
135.669
 30
0.0
 11
205.897
 21
135.917
 31
0.0
  0
LINE
  8
0
 62
     0
 10
205.897
 20
135.917
 30
0.0
 11
205.358
 21
136.003
 31
0.0
  0
LINE
  8
0
 62
     0
 10
205.358
 20
136.003
 30
0.0
 11
204.816
 21
135.917
 31
0.0
  0
LINE
  8
0
 62
     0
 10
104.684
 20
135.917
 30
0.0
 11
104.196
 21
135.669
 31
0.0
  0
LINE
  8
0
 62
     0
 10
104.196
 20
135.669
 30
0.0
 11
103.809
 21
135.282
 31
0.0
  0
LINE
  8
0
 62
     0
 10
103.809
 20
135.282
 30
0.0
 11
103.561
 21
134.794
 31
0.0
  0
LINE
  8
0
 62
     0
 10
103.561
 20
134.794
 30
0.0
 11
103.475
 21
134.253
 31
0.0
  0
LINE
  8
0
 62
     0
 10
103.475
 20
134.253
 30
0.0
 11
103.561
 21
133.712
 31
0.0
  0
LINE
  8
0
 62
     0
 10
103.561
 20
133.712
 30
0.0
 11
103.809
 21
133.225
 31
0.0
  0
LINE
  8
0
 62
     0
 10
103.809
 20
133.225
 30
0.0
 11
104.196
 21
132.837
 31
0.0
  0
LINE
  8
0
 62
     0
 10
104.196
 20
132.837
 30
0.0
 11
104.684
 21
132.589
 31
0.0
  0
LINE
  8
0
 62
     0
 10
104.684
 20
132.589
 30
0.0
 11
105.226
 21
132.503
 31
0.0
  0
LINE
  8
0
 62
     0
 10
105.226
 20
132.503
 30
0.0
 11
105.766
 21
132.589
 31
0.0
  0
LINE
  8
0
 62
     0
 10
105.766
 20
132.589
 30
0.0
 11
106.255
 21
132.837
 31
0.0
  0
LINE
  8
0
 62
     0
 10
106.255
 20
132.837
 30
0.0
 11
106.641
 21
133.225
 31
0.0
  0
LINE
  8
0
 62
     0
 10
106.641
 20
133.225
 30
0.0
 11
106.889
 21
133.712
 31
0.0
  0
LINE
  8
0
 62
     0
 10
106.889
 20
133.712
 30
0.0
 11
106.976
 21
134.253
 31
0.0
  0
LINE
  8
0
 62
     0
 10
106.976
 20
134.253
 30
0.0
 11
106.889
 21
134.794
 31
0.0
  0
LINE
  8
0
 62
     0
 10
106.889
 20
134.794
 30
0.0
 11
106.641
 21
135.282
 31
0.0
  0
LINE
  8
0
 62
     0
 10
106.641
 20
135.282
 30
0.0
 11
106.255
 21
135.669
 31
0.0
  0
LINE
  8
0
 62
     0
 10
106.255
 20
135.669
 30
0.0
 11
105.766
 21
135.917
 31
0.0
  0
LINE
  8
0
 62
     0
 10
105.766
 20
135.917
 30
0.0
 11
105.226
 21
136.003
 31
0.0
  0
LINE
  8
0
 62
     0
 10
105.226
 20
136.003
 30
0.0
 11
104.684
 21
135.917
 31
0.0
  0
ENDSEC
  0
EOF
